<svg width="1024" height="1024" viewBox="0 0 1024 1024" xmlns="http://www.w3.org/2000/svg" preserveAspectRatio="xMidYMid meet"><svg x="154" y="423" width="243" height="179" xmlns="http://www.w3.org/2000/svg" preserveAspectRatio="none"><svg version="1.1" xmlns="http://www.w3.org/2000/svg" style="display: block;" width="243" height="179" viewBox="0.00 -0.53 1940.00 1429.05" preserveAspectRatio="none"><g id="svg-group-5c8a868d-2354-4964-8c28-6590dd019fd4">
<path transform="translate(0,0)" fill="rgb(20,35,54)" d="M 804.745 140.429 L 805.359 140.408 C 829.802 139.604 855.685 140.27 880.393 140.082 C 896.05 139.962 917.707 139.213 932.876 141.629 C 940.146 142.787 954.244 152.5 959.468 157.756 C 973.572 171.95 975.593 187.659 975.643 206.442 C 975.817 271.079 975.843 335.713 975.89 400.321 L 975.923 454.188 C 975.928 464.313 976.509 479.125 974.773 488.809 C 972.355 502.307 956.191 523.5 942.023 525.858 C 927.232 528.32 911.385 527.888 896.457 527.915 L 839.136 527.942 L 630.5 527.951 L 535.072 528.001 C 514.993 528.004 475.282 529.685 457.384 524.36 C 457.112 520.842 456.915 517.318 456.794 513.791 C 456.085 492.625 460.661 473.296 464.326 452.93 C 478.771 372.662 519.39 307.289 574.726 248.536 C 581.331 241.523 591.713 233.454 599.301 226.944 C 648.878 184.409 702.848 159.908 766.648 146.409 C 778.365 143.93 792.834 140.809 804.745 140.429 z"/>
<path transform="translate(0,0)" fill="rgb(20,35,54)" d="M 475.881 596.505 C 509.544 595.57 545.81 596.193 579.657 596.207 L 764.251 596.272 L 859.119 596.182 C 885.175 596.157 909.46 594.867 935.46 599.464 C 964.157 604.537 972.585 624.687 974.959 651.995 C 976.644 671.379 975.773 692.382 975.763 712.084 L 975.604 819.463 L 975.765 888.338 C 975.882 920.966 980.434 947.732 948.342 967.994 C 929.316 977.414 906.684 975.757 885.816 975.414 C 849.323 974.815 804.493 976.141 768.612 970.22 C 666.677 953.399 575.352 884.241 521.335 797.664 C 515.283 787.965 507.411 778.879 502.398 768.443 C 481.789 722.385 455.382 651.446 456.298 601.283 C 464.308 597.09 466.72 596.911 475.881 596.505 z"/>
<path transform="translate(0,0)" fill="rgb(20,35,54)" d="M 1187.35 592.387 C 1237.46 590.657 1274.23 599.906 1313.5 632.328 C 1364.73 674.621 1361.23 718.088 1360.07 778.529 C 1359.1 828.533 1367.4 874.802 1332.57 917.274 C 1305.62 950.15 1261.38 974.854 1219.2 979.046 L 1217.01 979.23 C 1169.31 983.14 1124.3 969.585 1088.29 938.12 C 1063.9 917.677 1045.47 891.12 1044.48 858.078 C 1043.66 820.965 1044.2 781.486 1044.11 744.541 C 1044.01 702.993 1045.29 675.531 1075.18 643.956 C 1106.23 611.145 1143.26 595.239 1187.35 592.387 z"/>
<path transform="translate(0,0)" fill="rgb(51,82,218)" d="M 174.376 0 L 222.403 0 C 227.224 7.7874 240.678 7.24105 249.252 10.1394 C 255.421 12.2244 260.459 13.7628 266.524 16.3172 C 327.578 42.0305 373.648 96.5907 379.732 163.68 C 381.054 178.453 380.307 195.446 380.249 210.41 L 380.155 286.181 L 380.254 539.976 L 380.322 732.041 L 380.403 789.921 C 380.411 797.924 380.754 820.321 379.428 827.146 C 374.244 853.821 362.172 889.454 344.438 910 C 306.291 954.194 269.336 973.984 211.344 978.551 C 162.679 982.764 108.824 965.567 72.3787 932.962 C 38.0545 902.254 16.9158 861.749 12.9422 815.795 C 11.5187 799.333 12.0239 781.995 12.0586 765.47 L 12.117 696.533 L 12.1683 468.324 L 12.1221 268.162 L 12.1124 206.598 C 12.1238 193.159 11.824 176.585 13.2462 163.376 C 16.2875 137.479 24.9916 112.568 38.741 90.4131 C 68.0628 43.6331 107.627 18.9974 160.477 7.02592 C 166.514 5.6583 170.4 5.07125 174.376 0 z"/>
<path transform="translate(0,0)" fill="rgb(34,157,148)" d="M 1940 361.527 C 1932.46 368.68 1924.18 404.827 1917.76 416.914 C 1890.2 468.807 1840.26 507.42 1782.63 519.805 C 1756.43 525.433 1732.35 523.996 1705.94 523.992 L 1611.43 523.985 L 1407.02 523.974 C 1355.37 523.984 1304.51 522.81 1253.02 527.101 C 1237.08 528.43 1216.23 527.59 1199.93 527.556 C 1168.46 527.491 1128.8 529.396 1098.62 520.247 C 1087.67 516.959 1077.65 511.141 1069.36 503.262 C 1030.97 466.948 1050.75 428.515 1047.12 384.266 C 1042.98 333.864 1045.33 283.752 1044.54 233.254 C 1044.3 218.045 1044.66 198.629 1048.36 183.952 C 1053.33 164.23 1073.37 148.229 1091.63 141.102 C 1094.05 140.15 1103.04 139.995 1106.01 139.996 C 1153.31 140.018 1200.61 140.05 1247.91 140.043 L 1545.9 140.017 L 1690.42 139.925 C 1745.53 139.882 1792.39 135.308 1841.78 165.554 C 1886.5 192.938 1910.76 223.881 1929.74 272.075 C 1933.47 281.534 1932 291.645 1940 299.036 L 1940 361.527 z"/>
<path transform="translate(0,0)" fill="rgb(51,82,218)" d="M 0 1217.77 C 7.40856 1212.47 7.76531 1201.62 9.21199 1192.91 C 13.9202 1164.54 23.0384 1139.32 42.3029 1117.44 C 88.372 1060.49 163.747 1036.65 235.25 1045.78 C 250.183 1049.15 284.679 1055.5 296.855 1062.95 C 313.058 1072.86 346.423 1095.47 358.082 1108.4 C 413.56 1169.93 486.174 1177.47 551.51 1126.02 C 573.526 1108.68 600.142 1087.64 624.9 1073.5 C 669.369 1049.17 716.214 1043.09 766.115 1043.98 C 793.957 1044.47 807.622 1044.21 836.321 1048.08 C 879.417 1053.89 926.878 1083.6 952.731 1117.97 C 981.92 1157.35 994.189 1206.75 986.817 1255.2 C 982.174 1287.07 967.282 1327.23 947.833 1353.6 C 931.372 1375.92 902.493 1399.35 877.555 1411.4 C 865.432 1417.18 841.358 1419.05 832.826 1428 L 163.174 1428 C 157.749 1422.6 152.738 1420.77 145.457 1418.93 C 82.387 1402.93 36.5588 1354.14 14.0735 1294.39 C 9.16773 1281.35 10.4067 1253.03 0 1245.71 L 0 1217.77 z"/>
<path transform="translate(0,0)" fill="rgb(20,35,54)" d="M 1429.36 1398.76 C 1427.76 1380.72 1430.2 1363.55 1431.51 1345.6 C 1432.25 1335.56 1432.2 1325.45 1432.21 1315.39 C 1432.25 1292.37 1429.78 1269.98 1428.98 1247.07 C 1427.87 1215.54 1428.73 1183.68 1428.69 1152.11 C 1428.67 1130.68 1427.28 1108.48 1428.86 1087.14 C 1429.29 1081.41 1430.36 1075.12 1432.87 1069.91 C 1437.73 1059.8 1449.73 1051.25 1460.17 1047.85 C 1480.68 1041.19 1540.94 1044.21 1566.37 1044.21 L 1689.07 1044.2 L 1844.72 1044.16 C 1872.84 1044.16 1901.22 1043.94 1929.33 1044.49 C 1933.8 1044.58 1936.05 1045.24 1940 1047.25 L 1940 1090.31 C 1931.17 1096.41 1928.69 1118.98 1925.78 1129.64 C 1920.32 1150.1 1913.29 1170.11 1904.77 1189.5 C 1869.32 1270.91 1806.9 1342.08 1727.58 1382.93 C 1703.79 1395.31 1678.93 1405.49 1653.29 1413.35 C 1642.78 1416.5 1632.04 1418.79 1621.45 1421.66 C 1618.03 1422.58 1615.57 1425.05 1613.76 1428 L 1458 1428 C 1452.47 1420.98 1437.56 1408.44 1429.36 1398.76 z"/>
<path transform="translate(0,0)" fill="rgb(20,35,54)" d="M 1429.01 625.78 C 1451.81 590.796 1481.84 601.004 1518.04 600.06 C 1541.39 599.452 1566.43 599.569 1589.73 600.478 C 1640.9 602.475 1686.76 619.714 1731.05 644.631 C 1816.46 692.898 1882.12 769.731 1916.48 861.621 C 1923.8 880.926 1928.48 904.512 1934.24 924.412 C 1935.03 927.145 1937.51 928.121 1940 929.372 L 1940 971.609 C 1918.21 977.501 1851.33 975.772 1824.44 975.77 L 1671.63 975.838 L 1542.2 975.99 C 1519.06 976.022 1495.87 976.386 1472.78 975.446 C 1450.36 974.534 1431.29 954.144 1429.55 932.322 C 1428.85 923.551 1432.24 910.424 1432.25 900.61 L 1432.14 764.536 C 1432.11 748.568 1429.33 732.713 1429.3 717.614 C 1429.24 688.933 1426.4 653.881 1429.01 625.78 z"/>
<path transform="translate(0,0)" fill="rgb(34,157,148)" d="M 1162.85 1428 L 1162.03 1427.26 C 1150.47 1417.03 1130.61 1415.43 1117.62 1406.91 C 1085.85 1386.06 1050.79 1347.85 1044.17 1310.18 C 1032.02 1241.87 1025.51 1155.59 1075.59 1100.07 C 1112.91 1058.69 1173.95 1037.18 1229.2 1046.07 C 1270.34 1052.7 1295.22 1069.09 1324.04 1098.17 C 1347.6 1121.6 1361.76 1152.85 1363.84 1186.01 C 1364.83 1202.09 1364.42 1223.87 1364.41 1240.21 C 1364.4 1252.08 1365.22 1278.74 1363.63 1289.8 C 1359.01 1321.84 1345.84 1354.36 1323.96 1378.55 C 1305.3 1399.18 1290.65 1406.14 1265.98 1417.04 C 1259.15 1420.06 1250.48 1423.71 1244.66 1428 L 1162.85 1428 z"/>
</g></svg></svg><svg x="439" y="434" width="432" height="158" xmlns="http://www.w3.org/2000/svg" preserveAspectRatio="none"><svg version="1.1" xmlns="http://www.w3.org/2000/svg" style="display: block;" width="432" height="158" viewBox="-8.65 0.00 2065.31 755.37" preserveAspectRatio="none"><g id="svg-group-2184999e-c79f-4fc8-969f-8a1f860a8fff">
<path transform="translate(0,0)" fill="rgb(51,83,214)" d="M 1722.24 12.0942 C 1736.86 11.2366 1756.89 11.4919 1771.54 12.1746 C 1777.26 21.8309 1777.32 23.3008 1777.31 34.521 C 1777.29 46.8629 1777.33 59.3202 1777.32 71.6703 L 1777.33 157.44 L 1777.46 269.53 C 1777.48 289.436 1777.63 309.369 1777.35 329.278 C 1776.68 339.616 1777.36 349.528 1765.3 353.442 C 1753.01 357.431 1734.98 355.551 1722.47 352.651 C 1715.93 351.137 1712.8 336.643 1710.72 330.806 C 1706.28 336.99 1702.08 339.698 1695.76 343.706 C 1666.29 362.386 1626.31 363.396 1594.62 348.964 C 1534.01 320.524 1524.49 247.445 1535.47 188.244 C 1549.17 114.372 1623.42 81.5133 1690.42 108.462 C 1696.9 111.065 1704.45 122.267 1710.51 123.452 C 1715.85 117.694 1713.32 32.8302 1713.92 17.6403 L 1722.24 12.0942 z M 1663.94 301.853 C 1713.04 291.292 1716.11 242.692 1709.49 201.463 C 1705.12 174.28 1676.8 149.365 1648.64 154.283 C 1600.05 161.265 1595.12 211.794 1599.92 250.926 C 1601.92 267.251 1610.17 283.568 1623.78 293.426 C 1637.3 303.018 1647.98 302.733 1663.94 301.853 z"/>
<path transform="translate(0,0)" fill="rgb(51,83,214)" d="M 714.997 133.297 C 738.708 113.343 755.003 100.233 788.531 98.2454 C 811.925 98.0577 836.198 103.701 853.81 119.723 C 883.716 146.778 880.129 181.031 880.744 216.966 C 882.343 246.66 883.307 275.92 882.766 305.696 C 882.025 314.572 885.93 343.405 878.177 349.291 C 869.689 355.736 828.93 356.329 820.893 348.399 C 816.375 339.61 819.974 315.78 818.704 304.783 C 815.768 279.365 818.059 256.336 818.781 230.85 C 819.66 199.827 818.818 153.368 776.333 154.167 C 726.611 156.375 730.89 208.032 730.909 242.068 L 731.014 316.205 C 731.223 325.438 733.201 345.492 725.479 351.003 C 717.816 356.471 686.681 354.108 677.363 352.986 C 673.099 349.876 671.271 347.622 667.794 343.699 C 666.457 333.996 667.018 312.045 667.022 301.555 L 667.125 224.159 C 667.16 214.344 668.141 197.74 666.692 188.947 C 665.519 181.668 662.595 174.782 658.173 168.882 C 633.739 136.47 580.412 158.342 579.786 201.923 C 577.829 249.364 579.898 297.336 579.031 344.769 C 578.826 356.014 512.276 364.105 517.324 334.525 C 518.564 327.259 517.348 294.783 517.362 285.697 L 517.395 188.816 C 517.471 176.766 517.393 164.715 517.161 152.667 C 516.706 136.519 514.304 125.41 517.831 109.709 C 532.468 97.961 548.275 102.243 565.861 102.015 C 576.58 101.876 578.211 115.935 584.436 124.176 C 603.435 102.505 621.518 100.438 648.361 98.5126 C 652.663 98.0612 669.929 100.421 674.343 101.695 C 692.238 106.861 705.893 117.094 714.997 133.297 z"/>
<path transform="translate(0,0)" fill="rgb(51,83,214)" d="M 1393.82 97.4359 C 1394.93 97.3901 1396.03 97.3704 1397.14 97.3769 C 1427.51 97.5161 1459.42 104.068 1480.92 127.23 C 1507.77 156.15 1502.06 201.974 1502.06 239.001 C 1502.26 273.38 1502.27 307.759 1502.09 342.138 C 1500.09 345.757 1497.39 349.51 1495.04 352.961 C 1479.94 354.505 1460.05 354.265 1445.04 352.667 C 1442.69 344.826 1440.82 337.94 1437.24 330.522 C 1426.36 339.827 1416.04 350.358 1401.81 353.831 C 1351.71 366.061 1303.05 358.833 1286.07 303.771 C 1268.25 212.529 1360.85 217.297 1420.07 202.367 C 1429.41 200.013 1436.96 193.041 1441.05 184.361 C 1439.82 180.746 1438.55 177.222 1437.12 173.615 C 1428.15 150.909 1396.27 144.378 1375.6 153.138 C 1360.98 159.332 1353.1 172.429 1347.47 186.688 L 1345.85 186.834 C 1298.25 190.994 1273.29 176.797 1310.46 129.774 C 1328.06 107.503 1365.97 98.8882 1393.82 97.4359 z M 1357.89 301.096 C 1367.89 308.612 1377.76 310.61 1390.14 308.868 C 1405.6 306.69 1419.48 297.903 1428.78 285.427 C 1436.15 275.539 1440.74 255.484 1438.7 243.44 C 1438.57 242.665 1438.3 241.929 1437.98 241.216 C 1428.53 244.196 1419.1 246.994 1409.39 248.969 C 1389.75 252.963 1360.25 253.593 1349.51 273.681 C 1347.4 277.639 1346.88 282.25 1348.3 286.529 C 1349.99 291.637 1353.74 297.679 1357.89 301.096 z"/>
<path transform="translate(0,0)" fill="rgb(51,83,214)" d="M 268.56 102.299 C 279.171 101.996 294.643 100.96 304.965 103.068 C 322.184 107.29 313.104 136.272 313.848 148.447 C 315.747 179.515 316.025 209.665 315.492 240.682 C 315.322 250.539 314.791 262.669 315.876 272.185 C 316.517 278.222 318.446 284.052 321.532 289.28 C 326.206 297.23 333.937 302.914 342.919 305.004 C 355.491 308.036 369.593 306.692 380.663 299.821 C 390.413 293.769 401.041 283.25 405.245 272.386 C 411.102 257.249 408.106 164.717 408.06 142.187 C 408.04 132.63 406.565 120.216 408.9 111.031 C 409.578 108.363 411.477 106.897 413.8 105.584 C 427.12 98.058 455.584 101.69 469.596 105.844 C 470.376 113.651 469.623 124.187 470.24 132.31 C 471.823 153.168 472.194 172.613 472.188 193.5 L 472.259 291.566 C 472.309 307.821 472.761 326.191 471.67 342.187 C 470.313 362.099 433.691 354.988 420.956 353.78 C 406.804 352.438 412.7 339.115 407.507 331.707 C 404.219 330.643 401.195 333.433 398.911 335.962 C 374.732 362.732 316.248 365.531 286.518 346.725 C 250.752 324.101 251.635 285.37 251.712 247.681 L 251.825 192.551 C 251.797 167.822 251.471 142.867 251.683 118.13 C 251.792 105.476 257.896 104.137 268.56 102.299 z"/>
<path transform="translate(0,0)" fill="rgb(51,83,214)" d="M 1702.88 491.404 C 1706.95 491.216 1711.03 491.259 1715.11 491.533 C 1737.9 492.915 1759.76 499.869 1775.2 517.407 C 1785.23 528.799 1791.94 543.911 1795.13 558.66 C 1802.06 590.731 1798.81 633.138 1798.9 666.627 C 1798.95 686.458 1800.32 707.214 1798.94 726.972 C 1798.66 730.974 1797.96 737.916 1794.73 740.574 C 1785.93 747.816 1762.19 745.78 1751.06 744.721 C 1746.24 744.263 1738.86 742.875 1736.23 738.37 C 1733.08 732.959 1734.93 719.866 1734.95 713.541 L 1734.84 638.169 C 1734.9 621.551 1736.61 602.86 1733.68 586.488 C 1732 577.052 1728.31 567.446 1722.11 560.03 C 1714.41 550.821 1704.74 547.727 1693.09 546.746 C 1678.85 545.547 1667.44 549.612 1656.65 558.762 C 1651.29 564.107 1644.61 569.809 1641.65 576.904 C 1634.35 594.389 1637.47 678.164 1637.62 700.945 C 1637.68 711.519 1639.18 724.358 1636.42 734.531 C 1635.45 738.066 1634.16 740.371 1630.88 742.158 C 1622.88 746.528 1595.12 746.501 1586.44 743.765 C 1579.43 741.553 1576.52 736.954 1573.44 730.782 C 1577.97 701.825 1574.53 673.515 1573.95 644.474 C 1573.32 613.335 1573.84 582.104 1573.69 550.955 C 1573.61 535.717 1571.37 517.518 1574.25 502.698 C 1575.92 499.512 1579.84 497.828 1582.85 496.069 C 1595.03 495.827 1608.07 494.72 1620.16 495.94 C 1635.09 497.447 1632 509.594 1640.78 520.306 C 1642.05 518.488 1643.36 516.677 1644.8 514.984 C 1658.25 499.143 1683.07 492.975 1702.88 491.404 z"/>
<path transform="translate(0,0)" fill="rgb(51,83,214)" d="M 1128.43 100.305 C 1192.87 90.9241 1258.41 121.141 1258.07 193.8 C 1244.03 199.268 1223.1 204.783 1208.19 200.427 L 1207.56 200.238 C 1197.51 197.289 1193.73 164.902 1174.53 156.901 C 1161.14 150.844 1143.34 150.258 1129.3 155.043 C 1087.13 169.402 1086.62 234.727 1097.84 269.419 C 1107.92 300.56 1142.04 313.983 1171.46 301.795 C 1192.17 293.218 1193.93 284.391 1202.07 266.056 C 1204.84 263.462 1208.26 261.265 1211.4 259.102 C 1232.81 257.758 1251.25 253.98 1260.83 276.722 C 1255.16 292.994 1254 302.637 1244.01 317.829 C 1231.38 336.082 1201.38 354.107 1179.57 357.122 C 1104.18 367.545 1041.52 339.297 1030.12 257.999 C 1019.58 182.836 1044.14 113.331 1128.43 100.305 z"/>
<path transform="translate(0,0)" fill="rgb(51,83,214)" d="M 31.0829 16.4851 C 69.3104 15.9002 75.2278 12.702 73.7891 53.9319 C 73.3598 66.2358 73.769 81.4946 73.764 94.0375 L 73.6658 228.166 C 73.6498 244.862 71.5727 266.648 74.6526 282.872 C 75.2657 286.102 76.3016 289.677 79.3003 291.41 C 87.1917 295.969 205.728 287.387 215.821 294.616 C 219.975 297.591 221.63 304.047 222.441 308.865 C 224.33 320.077 225.308 335.325 218.308 345.025 C 214.09 350.87 208.664 352.237 201.965 353.317 C 192.29 353.793 182.24 353.757 172.488 353.592 C 122.039 352.74 71.2922 354.56 20.9458 352.78 C 18.8411 352.706 12.0251 347.48 9.99962 345.988 C 9.06565 325.345 9.70527 300.501 9.71141 279.488 L 9.74297 158.141 L 9.68393 73.2394 C 9.67862 58.572 9.31779 43.5665 10.0536 28.9571 C 10.6346 17.4227 22.6232 16.7067 31.0829 16.4851 z"/>
<path transform="translate(0,0)" fill="rgb(51,83,214)" d="M 607.537 399.059 C 607.906 399.05 608.276 399.031 608.646 399.04 C 617.649 399.24 644.889 399.619 650.823 405.983 C 653.771 423.411 652.796 441.432 652.798 459.064 L 652.757 530.887 L 652.748 665.077 C 652.76 686.481 653.411 708.02 652.855 729.406 C 652.784 732.155 653.032 735.696 651.54 738.109 C 648.72 742.668 641.531 743.899 636.686 744.988 C 625.318 745.243 610.77 747.112 599.995 743.009 C 595.566 741.322 592.155 738.48 590.322 734.044 C 589.098 731.081 588.922 727.612 588.832 724.433 C 588.064 697.257 587.573 415.022 589.819 409.977 C 592.791 403.297 601.222 401.343 607.537 399.059 z"/>
<path transform="translate(0,0)" fill="rgb(51,83,214)" d="M 1202.66 494.167 C 1208.05 493.951 1213.43 493.782 1218.82 493.662 C 1228.16 493.483 1239.72 493.374 1246.89 500.421 C 1249.72 503.202 1250.04 506.047 1250.42 509.864 C 1252.71 533.35 1250.86 559.617 1250.86 583.34 L 1251.07 736.901 C 1246.82 740.147 1242.87 743.367 1237.78 745.187 C 1225.09 745.328 1212.41 745.184 1199.73 744.755 C 1196.06 742.618 1192.66 739.948 1189.22 737.454 C 1187.97 716.855 1189.21 695.944 1188.77 675.288 C 1188.5 662.418 1187.31 649.587 1187.07 636.707 C 1186.26 593.403 1186.68 549.858 1186.89 506.536 C 1191.19 499.588 1194.75 496.406 1202.66 494.167 z"/>
<path transform="translate(0,0)" fill="rgb(51,83,214)" d="M 941.85 102.269 C 951.171 101.933 983.405 99.1291 986.738 107.803 C 991.173 119.345 989.829 150.987 989.833 163.931 L 989.824 239.779 L 989.893 302.429 C 989.917 317.547 991.884 339.637 985.734 353.034 C 982.643 353.386 978.796 353.55 975.627 353.777 L 962.921 353.966 C 947.358 354.158 926.656 357.877 926.3 336.378 C 925.906 312.689 924.938 287.351 926.221 263.73 C 928.965 213.218 927.468 162.964 928.022 112.431 C 932.873 106.982 935.372 105.129 941.85 102.269 z"/>
<path transform="translate(0,0)" fill="rgb(51,83,214)" d="M 1208.94 392.201 C 1229.93 386.895 1251.22 399.7 1256.37 420.725 C 1261.51 441.749 1248.55 462.943 1227.49 467.935 C 1206.65 472.874 1185.72 460.075 1180.63 439.272 C 1175.54 418.468 1188.18 397.45 1208.94 392.201 z"/>
<path transform="translate(0,0)" fill="rgb(51,83,214)" d="M 58.2463 636.764 C 62.8794 644.395 64.0723 650.894 67.532 658.71 C 74.3947 674.214 94.4364 687.517 110.749 690.871 C 140.105 696.907 193.439 694.731 203.366 659.391 C 212.954 622.459 177.512 607.216 148.113 600.461 C 104.023 590.33 49.7199 587.419 23.131 545.149 C 8.84422 522.437 6.57238 493.729 12.1359 468.024 C 20.5079 429.344 55.9025 405.041 93.0868 398.531 C 148.265 388.351 218.979 392.979 251.635 445.794 C 260.359 459.979 271.414 488.599 252.535 499.598 C 242.526 505.43 222.894 504.18 211.868 501.961 C 198.934 499.358 197.384 485.708 192.003 476.006 C 172.619 446.4 124.357 442.955 94.9984 457.375 C 87.823 460.876 78.5784 470.43 73.8517 476.823 C 73.5904 484.665 73.1335 492.894 73.7145 500.691 C 90.4806 525.771 102.994 526.223 131.219 533.347 C 180.417 545.764 243.805 550.458 265.623 604.614 C 273.505 623.689 275.198 645.044 271.242 664.962 C 266.066 690.792 250.954 713.556 229.159 728.352 C 210.55 740.75 181.438 743.088 173.433 750 L 97.3596 750 C 95.9329 748.675 93.2383 746.915 91.3561 746.425 C 56.479 737.344 25.1056 723.966 9.5635 688.769 C 6.48668 681.801 5.57171 673.213 0.243018 667.519 L 0 667.263 L 0 649.342 C 4.9605 644.039 10.7663 637.595 17.173 634.163 C 31.039 633.608 45.0361 632.301 58.2463 636.764 z"/>
<path transform="translate(0,0)" fill="rgb(51,83,214)" d="M 396.049 750 L 395.783 749.758 C 389.355 743.992 373.444 740.431 364.486 736.283 C 298.548 705.751 290.655 615.613 313.749 555.117 C 315.993 549.238 324.163 538.865 328.447 534.071 C 350.874 508.486 382.667 493.021 416.639 491.171 C 491.196 487.28 544.493 525.521 550.59 603.011 C 555.179 661.333 534.849 720.774 474.722 740.853 C 468.828 742.809 460.763 745.872 456.102 750 L 396.049 750 z M 437.051 692.87 C 452.017 689.567 464.063 682.84 472.498 669.7 C 485.723 649.102 487.958 618.047 482.647 594.45 C 479.044 578.446 470.879 563.316 456.745 554.358 C 444.734 546.745 431.352 545.333 417.435 546.357 C 401.501 549.643 389.352 558.131 380.412 571.825 C 366.76 592.738 365.849 623.821 370.881 647.557 C 374.231 663.359 382.784 677.264 396.478 686.113 C 409.26 694.372 422.423 694.184 437.051 692.87 z"/>
<path transform="translate(0,0)" fill="rgb(51,83,214)" d="M 1386.06 750 C 1380.38 745.397 1362.93 740.612 1355.36 737.001 C 1314.61 717.559 1296.89 687.025 1291.24 644.263 C 1280.19 560.695 1319.93 494.914 1409.05 490.891 C 1475.34 487.898 1522.97 522.904 1534.09 589.863 C 1543.49 651.451 1523.66 724.74 1455.86 742.966 C 1450.77 744.344 1441.97 746.535 1437.95 750 L 1386.06 750 z M 1422.77 693.041 C 1438.47 689.899 1449.71 683.441 1458.76 669.887 C 1472.87 648.761 1473.54 618.126 1468.61 593.994 C 1465.36 578.109 1457.9 563.876 1444.07 554.815 C 1432.68 547.356 1419.55 544.972 1406.13 546.327 C 1390.02 548.893 1376.63 555.741 1366.94 569.163 C 1352.53 589.12 1352.41 619.777 1356.32 643.308 C 1358.92 659.014 1365.36 673.553 1378.65 682.937 C 1392.39 692.64 1406.47 693.758 1422.77 693.041 z"/>
<path transform="translate(0,0)" fill="rgb(51,83,214)" d="M 2041.43 294.903 C 2035.86 311.243 2030.16 323.744 2015.77 334.532 C 1986 356.853 1944.64 361.937 1908.55 357.437 C 1876.52 353.443 1852.19 337.003 1833.14 311.241 C 1809.77 279.63 1807.97 236.337 1811.88 198.675 C 1815.3 171.25 1833.43 136.934 1855.99 121.249 C 1913.34 81.3623 2007.57 92.0544 2037.29 161.742 C 2040.52 169.318 2043.53 184.513 2048 190.027 L 2048 225.901 C 2044.81 230.311 2040.49 238.061 2036.84 243.354 C 1984.72 251.635 1927.89 243.007 1875.34 247.677 C 1874.64 247.739 1873.41 249.321 1873.42 250.083 C 1873.72 273.797 1891.79 297.846 1914.89 304.444 C 1929.83 308.298 1954.96 308.696 1968.81 300.526 C 1980.55 293.602 1987.8 281.912 1999.95 275.217 C 2017.86 276.074 2033.14 277.284 2041.43 294.903 z M 1874.9 203.176 C 1895.16 202.393 1915.44 202.072 1935.71 202.213 C 1951.19 202.243 1968.2 202.618 1983.56 202.041 C 1979.26 168.534 1960.07 148.05 1924.57 151.394 C 1895.41 154.563 1876.25 173.425 1874.9 203.176 z"/>
<path transform="translate(0,0)" fill="rgb(51,83,214)" d="M 766.615 670.002 C 778.259 682.871 786.247 692.089 804.669 693.239 C 833.21 695.119 861.537 677.363 861.662 646.615 C 861.853 599.624 861.491 552.527 861.546 505.531 C 861.552 500.192 865.857 497.22 871.094 496.475 C 886.148 494.332 908.566 490.277 921.443 500.186 C 927.821 506.081 924.849 528.068 925.517 536.63 C 925.782 554.881 925.106 573.246 925.223 591.494 C 925.562 622.26 925.685 653.028 925.592 683.796 C 925.595 699.946 925.955 716.257 924.961 732.351 C 924.75 735.769 923.717 738.026 920.819 740.018 C 907.347 749.279 877.961 746.372 864.533 739.688 C 861.964 732.473 861.154 726.697 859.048 720.408 C 839.021 739.827 829.191 742.016 802.333 746.799 C 801.033 747.031 798.883 749.017 797.927 750 L 780.391 750 C 776.075 745.418 762.495 743.019 756.082 741.029 C 710.246 726.806 702.97 686.204 702.775 643.823 L 702.744 555.264 C 702.743 539.818 701.539 523.416 703.255 508.103 C 703.567 505.312 703.808 503.375 705.817 501.254 C 712.808 493.874 730.208 494.18 739.661 494.177 C 745.689 494.175 756.732 494.608 761.245 499.173 C 769.663 507.689 765.901 646.948 766.615 670.002 z"/>
<path transform="translate(0,0)" fill="rgb(51,83,214)" d="M 1989.42 675.896 C 1986.89 669.1 1983.33 661.811 1977.42 657.35 C 1952.48 638.519 1890.82 650.203 1855.3 617.184 C 1841.78 604.618 1837.15 587.651 1836.63 569.74 C 1836.06 550.617 1841.46 533.457 1854.87 519.369 C 1874.24 499.006 1908.98 489.97 1936.38 489.341 C 1965.3 488.678 2000.43 496.664 2021.67 517.107 C 2030.65 525.754 2038.92 539.755 2039.01 552.548 C 2039.05 557.741 2037.38 562.335 2033.67 566.022 C 2026.25 573.384 2014.31 574.951 2004.35 574.883 C 1981.88 574.732 1982.98 561.948 1970.06 549.123 C 1960.57 539.698 1945.88 538.008 1933.15 537.985 C 1922.45 537.966 1911.24 539.473 1903.39 547.509 C 1895.98 555.099 1895.93 562.453 1896.09 572.559 C 1915.09 595.687 1934.21 591.654 1961.81 597.359 C 1986.58 602.478 2018.86 607.65 2034.54 630.047 C 2040.13 638.018 2043.25 648.421 2047.57 654.484 L 2048 655.08 L 2048 684.021 C 2043.24 690.207 2040.54 705.471 2033.35 716.24 C 2018.77 738.061 1991.3 737.685 1977.24 750 L 1905.59 750 C 1899.5 744.296 1873.02 739.202 1861.69 731.487 C 1842.97 718.754 1836.98 704.885 1831.95 683.726 C 1834.43 675.947 1836.36 670.146 1844.37 666.265 C 1857.02 660.135 1874.29 661.697 1887.22 665.581 C 1893.85 682.497 1893.88 695.975 1915.23 701.093 C 1944.63 708.139 1979.09 709.389 1989.42 675.896 z"/>
<path transform="translate(0,0)" fill="rgb(51,83,214)" d="M 1079.4 750 C 1076.39 746.9 1073.59 745.956 1069.39 745.392 C 1029.55 740.028 1003.75 712.864 1003.74 672.155 C 1003.73 634.182 1004.52 594.301 1003.27 556.264 C 1002.6 541.185 972.462 552.282 961.117 546.417 C 956.78 541.83 954.041 504.767 959.829 499.196 C 972.362 488.48 1002.8 507.198 1004.76 485.496 C 1005.88 473.019 998.433 436.856 1008.67 429.691 C 1021.03 421.047 1053.38 422.112 1065.42 433.014 C 1065.89 443.819 1063.68 490.4 1068.64 493.03 C 1087.49 503.035 1128.42 486.043 1146.29 504.868 C 1150.1 520.137 1149.35 533.81 1142.02 548.114 C 1129.44 548.2 1077.4 547.016 1069.69 549.952 C 1063.71 557.297 1065.59 589.021 1065.6 600.091 L 1065.72 672.38 C 1075.03 683.25 1085.38 693.127 1100.55 693.204 C 1143.35 693.42 1152.64 678.346 1151 731.373 C 1136.67 755.367 1118.55 737.78 1109.07 750 L 1079.4 750 z"/>
<path transform="translate(0,0)" fill="rgb(51,83,214)" d="M 951.307 0 L 968.665 0 C 975.826 5.416 984.742 9.11063 989.836 16.9951 C 1009.14 46.8768 988.063 83.0645 952.217 77.2518 C 941.649 75.585 932.175 69.7903 925.878 61.1414 C 918.449 50.7338 918.854 40.1245 921.037 28.0781 C 924.171 10.7905 940.725 7.46774 951.307 0 z"/>
</g></svg></svg></svg>