<svg width="1024" height="1024" viewBox="0 0 1024 1024" xmlns="http://www.w3.org/2000/svg" preserveAspectRatio="xMidYMid meet"><svg x="287" y="346" width="450" height="332" xmlns="http://www.w3.org/2000/svg" preserveAspectRatio="none"><svg version="1.1" xmlns="http://www.w3.org/2000/svg" style="display: block;" width="450" height="332" viewBox="0.00 -0.53 1940.00 1429.05" preserveAspectRatio="none"><g id="svg-group-5c8a868d-2354-4964-8c28-6590dd019fd4">
<path transform="translate(0,0)" fill="rgba(20, 35, 54, 1)" d="M 804.745 140.429 L 805.359 140.408 C 829.802 139.604 855.685 140.27 880.393 140.082 C 896.05 139.962 917.707 139.213 932.876 141.629 C 940.146 142.787 954.244 152.5 959.468 157.756 C 973.572 171.95 975.593 187.659 975.643 206.442 C 975.817 271.079 975.843 335.713 975.89 400.321 L 975.923 454.188 C 975.928 464.313 976.509 479.125 974.773 488.809 C 972.355 502.307 956.191 523.5 942.023 525.858 C 927.232 528.32 911.385 527.888 896.457 527.915 L 839.136 527.942 L 630.5 527.951 L 535.072 528.001 C 514.993 528.004 475.282 529.685 457.384 524.36 C 457.112 520.842 456.915 517.318 456.794 513.791 C 456.085 492.625 460.661 473.296 464.326 452.93 C 478.771 372.662 519.39 307.289 574.726 248.536 C 581.331 241.523 591.713 233.454 599.301 226.944 C 648.878 184.409 702.848 159.908 766.648 146.409 C 778.365 143.93 792.834 140.809 804.745 140.429 z"/>
<path transform="translate(0,0)" fill="rgba(20, 35, 54, 1)" d="M 475.881 596.505 C 509.544 595.57 545.81 596.193 579.657 596.207 L 764.251 596.272 L 859.119 596.182 C 885.175 596.157 909.46 594.867 935.46 599.464 C 964.157 604.537 972.585 624.687 974.959 651.995 C 976.644 671.379 975.773 692.382 975.763 712.084 L 975.604 819.463 L 975.765 888.338 C 975.882 920.966 980.434 947.732 948.342 967.994 C 929.316 977.414 906.684 975.757 885.816 975.414 C 849.323 974.815 804.493 976.141 768.612 970.22 C 666.677 953.399 575.352 884.241 521.335 797.664 C 515.283 787.965 507.411 778.879 502.398 768.443 C 481.789 722.385 455.382 651.446 456.298 601.283 C 464.308 597.09 466.72 596.911 475.881 596.505 z"/>
<path transform="translate(0,0)" fill="rgba(20, 35, 54, 1)" d="M 1187.35 592.387 C 1237.46 590.657 1274.23 599.906 1313.5 632.328 C 1364.73 674.621 1361.23 718.088 1360.07 778.529 C 1359.1 828.533 1367.4 874.802 1332.57 917.274 C 1305.62 950.15 1261.38 974.854 1219.2 979.046 L 1217.01 979.23 C 1169.31 983.14 1124.3 969.585 1088.29 938.12 C 1063.9 917.677 1045.47 891.12 1044.48 858.078 C 1043.66 820.965 1044.2 781.486 1044.11 744.541 C 1044.01 702.993 1045.29 675.531 1075.18 643.956 C 1106.23 611.145 1143.26 595.239 1187.35 592.387 z"/>
<path transform="translate(0,0)" fill="rgba(51, 82, 218, 1)" d="M 174.376 0 L 222.403 0 C 227.224 7.7874 240.678 7.24105 249.252 10.1394 C 255.421 12.2244 260.459 13.7628 266.524 16.3172 C 327.578 42.0305 373.648 96.5907 379.732 163.68 C 381.054 178.453 380.307 195.446 380.249 210.41 L 380.155 286.181 L 380.254 539.976 L 380.322 732.041 L 380.403 789.921 C 380.411 797.924 380.754 820.321 379.428 827.146 C 374.244 853.821 362.172 889.454 344.438 910 C 306.291 954.194 269.336 973.984 211.344 978.551 C 162.679 982.764 108.824 965.567 72.3787 932.962 C 38.0545 902.254 16.9158 861.749 12.9422 815.795 C 11.5187 799.333 12.0239 781.995 12.0586 765.47 L 12.117 696.533 L 12.1683 468.324 L 12.1221 268.162 L 12.1124 206.598 C 12.1238 193.159 11.824 176.585 13.2462 163.376 C 16.2875 137.479 24.9916 112.568 38.741 90.4131 C 68.0628 43.6331 107.627 18.9974 160.477 7.02592 C 166.514 5.6583 170.4 5.07125 174.376 0 z"/>
<path transform="translate(0,0)" fill="rgba(34, 157, 148, 1)" d="M 1940 361.527 C 1932.46 368.68 1924.18 404.827 1917.76 416.914 C 1890.2 468.807 1840.26 507.42 1782.63 519.805 C 1756.43 525.433 1732.35 523.996 1705.94 523.992 L 1611.43 523.985 L 1407.02 523.974 C 1355.37 523.984 1304.51 522.81 1253.02 527.101 C 1237.08 528.43 1216.23 527.59 1199.93 527.556 C 1168.46 527.491 1128.8 529.396 1098.62 520.247 C 1087.67 516.959 1077.65 511.141 1069.36 503.262 C 1030.97 466.948 1050.75 428.515 1047.12 384.266 C 1042.98 333.864 1045.33 283.752 1044.54 233.254 C 1044.3 218.045 1044.66 198.629 1048.36 183.952 C 1053.33 164.23 1073.37 148.229 1091.63 141.102 C 1094.05 140.15 1103.04 139.995 1106.01 139.996 C 1153.31 140.018 1200.61 140.05 1247.91 140.043 L 1545.9 140.017 L 1690.42 139.925 C 1745.53 139.882 1792.39 135.308 1841.78 165.554 C 1886.5 192.938 1910.76 223.881 1929.74 272.075 C 1933.47 281.534 1932 291.645 1940 299.036 L 1940 361.527 z"/>
<path transform="translate(0,0)" fill="rgba(51, 82, 218, 1)" d="M 0 1217.77 C 7.40856 1212.47 7.76531 1201.62 9.21199 1192.91 C 13.9202 1164.54 23.0384 1139.32 42.3029 1117.44 C 88.372 1060.49 163.747 1036.65 235.25 1045.78 C 250.183 1049.15 284.679 1055.5 296.855 1062.95 C 313.058 1072.86 346.423 1095.47 358.082 1108.4 C 413.56 1169.93 486.174 1177.47 551.51 1126.02 C 573.526 1108.68 600.142 1087.64 624.9 1073.5 C 669.369 1049.17 716.214 1043.09 766.115 1043.98 C 793.957 1044.47 807.622 1044.21 836.321 1048.08 C 879.417 1053.89 926.878 1083.6 952.731 1117.97 C 981.92 1157.35 994.189 1206.75 986.817 1255.2 C 982.174 1287.07 967.282 1327.23 947.833 1353.6 C 931.372 1375.92 902.493 1399.35 877.555 1411.4 C 865.432 1417.18 841.358 1419.05 832.826 1428 L 163.174 1428 C 157.749 1422.6 152.738 1420.77 145.457 1418.93 C 82.387 1402.93 36.5588 1354.14 14.0735 1294.39 C 9.16773 1281.35 10.4067 1253.03 0 1245.71 L 0 1217.77 z"/>
<path transform="translate(0,0)" fill="rgba(20, 35, 54, 1)" d="M 1429.36 1398.76 C 1427.76 1380.72 1430.2 1363.55 1431.51 1345.6 C 1432.25 1335.56 1432.2 1325.45 1432.21 1315.39 C 1432.25 1292.37 1429.78 1269.98 1428.98 1247.07 C 1427.87 1215.54 1428.73 1183.68 1428.69 1152.11 C 1428.67 1130.68 1427.28 1108.48 1428.86 1087.14 C 1429.29 1081.41 1430.36 1075.12 1432.87 1069.91 C 1437.73 1059.8 1449.73 1051.25 1460.17 1047.85 C 1480.68 1041.19 1540.94 1044.21 1566.37 1044.21 L 1689.07 1044.2 L 1844.72 1044.16 C 1872.84 1044.16 1901.22 1043.94 1929.33 1044.49 C 1933.8 1044.58 1936.05 1045.24 1940 1047.25 L 1940 1090.31 C 1931.17 1096.41 1928.69 1118.98 1925.78 1129.64 C 1920.32 1150.1 1913.29 1170.11 1904.77 1189.5 C 1869.32 1270.91 1806.9 1342.08 1727.58 1382.93 C 1703.79 1395.31 1678.93 1405.49 1653.29 1413.35 C 1642.78 1416.5 1632.04 1418.79 1621.45 1421.66 C 1618.03 1422.58 1615.57 1425.05 1613.76 1428 L 1458 1428 C 1452.47 1420.98 1437.56 1408.44 1429.36 1398.76 z"/>
<path transform="translate(0,0)" fill="rgba(20, 35, 54, 1)" d="M 1429.01 625.78 C 1451.81 590.796 1481.84 601.004 1518.04 600.06 C 1541.39 599.452 1566.43 599.569 1589.73 600.478 C 1640.9 602.475 1686.76 619.714 1731.05 644.631 C 1816.46 692.898 1882.12 769.731 1916.48 861.621 C 1923.8 880.926 1928.48 904.512 1934.24 924.412 C 1935.03 927.145 1937.51 928.121 1940 929.372 L 1940 971.609 C 1918.21 977.501 1851.33 975.772 1824.44 975.77 L 1671.63 975.838 L 1542.2 975.99 C 1519.06 976.022 1495.87 976.386 1472.78 975.446 C 1450.36 974.534 1431.29 954.144 1429.55 932.322 C 1428.85 923.551 1432.24 910.424 1432.25 900.61 L 1432.14 764.536 C 1432.11 748.568 1429.33 732.713 1429.3 717.614 C 1429.24 688.933 1426.4 653.881 1429.01 625.78 z"/>
<path transform="translate(0,0)" fill="rgba(34, 157, 148, 1)" d="M 1162.85 1428 L 1162.03 1427.26 C 1150.47 1417.03 1130.61 1415.43 1117.62 1406.91 C 1085.85 1386.06 1050.79 1347.85 1044.17 1310.18 C 1032.02 1241.87 1025.51 1155.59 1075.59 1100.07 C 1112.91 1058.69 1173.95 1037.18 1229.2 1046.07 C 1270.34 1052.7 1295.22 1069.09 1324.04 1098.17 C 1347.6 1121.6 1361.76 1152.85 1363.84 1186.01 C 1364.83 1202.09 1364.42 1223.87 1364.41 1240.21 C 1364.4 1252.08 1365.22 1278.74 1363.63 1289.8 C 1359.01 1321.84 1345.84 1354.36 1323.96 1378.55 C 1305.3 1399.18 1290.65 1406.14 1265.98 1417.04 C 1259.15 1420.06 1250.48 1423.71 1244.66 1428 L 1162.85 1428 z"/>
</g></svg></svg></svg>