<?xml version="1.0" encoding="UTF-8"?>
<svg xmlns="http://www.w3.org/2000/svg" viewBox="0 0 500 500" width="500px" height="500px">
  <rect x="48.68" y="48.68" width="402.639" height="402.639" style="stroke: rgba(0, 0, 0, 0); fill: rgb(26, 18, 8);" rx="32" ry="32"/>
  <path d="M 341.548 328.377 Q 341.548 347.277 331.923 360.052 Q 322.298 372.827 301.998 379.127 Q 281.698 385.427 248.798 385.427 Q 219.398 385.427 201.023 380.177 Q 182.648 374.927 174.423 365.127 Q 166.198 355.327 166.198 341.677 Q 166.198 326.627 174.423 318.052 Q 182.648 309.477 197.348 306.677 L 197.348 302.827 Q 187.198 299.677 181.948 292.327 Q 176.698 284.977 176.698 274.827 Q 176.698 260.827 186.323 253.302 Q 195.948 245.777 209.248 242.627 L 209.248 241.227 Q 192.798 233.527 184.223 219.527 Q 175.648 205.527 175.648 187.327 Q 175.648 168.777 184.223 154.777 Q 192.798 140.777 209.073 132.902 Q 225.348 125.027 248.098 125.027 Q 257.548 125.027 265.773 126.427 Q 273.998 127.827 281.348 130.627 L 281.348 125.727 Q 281.348 113.477 287.298 106.827 Q 293.248 100.177 305.148 100.177 L 332.798 100.177 L 332.798 130.627 L 296.048 130.627 L 296.048 137.977 Q 308.298 146.377 314.773 158.977 Q 321.248 171.577 321.248 187.327 Q 321.248 205.527 312.673 219.527 Q 304.098 233.527 287.823 241.227 Q 271.548 248.927 248.448 248.927 Q 241.798 248.927 235.673 248.227 Q 229.548 247.527 224.648 246.127 Q 217.998 248.577 212.748 252.952 Q 207.498 257.327 207.498 264.327 Q 207.498 271.677 213.973 274.827 Q 220.448 277.977 232.698 277.977 L 277.498 277.977 Q 311.098 277.977 326.323 291.277 Q 341.548 304.577 341.548 328.377 Z M 305.848 332.577 Q 305.848 322.777 298.323 317.352 Q 290.798 311.927 272.248 311.927 L 210.648 311.927 Q 204.348 315.427 201.373 320.852 Q 198.398 326.277 198.398 332.927 Q 198.398 343.777 207.148 350.777 Q 215.898 357.777 237.248 357.777 L 261.048 357.777 Q 283.448 357.777 294.648 351.477 Q 305.848 345.177 305.848 332.577 Z M 248.448 221.627 Q 265.248 221.627 274.523 213.927 Q 283.798 206.227 283.798 190.827 L 283.798 183.477 Q 283.798 168.077 274.523 160.377 Q 265.248 152.677 248.448 152.677 Q 231.648 152.677 222.373 160.377 Q 213.098 168.077 213.098 183.477 L 213.098 190.827 Q 213.098 206.227 222.373 213.927 Q 231.648 221.627 248.448 221.627 Z" style="fill: rgb(253, 248, 244); text-wrap-mode: nowrap;"/>
  <g>
    <title>Circle</title>
    <ellipse style="stroke: rgba(0, 0, 0, 0); fill: rgb(26, 18, 8);" cx="351.879" cy="364.329" rx="43.616" ry="43.616">
      <title>Back</title>
    </ellipse>
    <ellipse style="stroke: rgba(0, 0, 0, 0); stroke-width: 1; fill: rgb(232, 120, 74);" cx="351.879" cy="364.329" rx="37.567" ry="37.567"/>
  </g>
</svg>