<svg width="648" height="319" viewBox="0 0 648 319" fill="none" xmlns="http://www.w3.org/2000/svg">
<rect x="91" y="125" width="68" height="68" fill="#B1FF3B"/>
<path d="M181.216 211V115.64H221.408C227.723 115.64 233.099 116.749 237.536 118.968C242.059 121.101 245.515 124.173 247.904 128.184C250.379 132.109 251.616 136.888 251.616 142.52C251.616 146.872 250.421 150.968 248.032 154.808C245.728 158.563 242.016 161.677 236.896 164.152V156.088C241.589 157.88 245.301 160.099 248.032 162.744C250.763 165.389 252.683 168.333 253.792 171.576C254.901 174.819 255.456 178.232 255.456 181.816C255.456 190.947 252.427 198.115 246.368 203.32C240.395 208.44 232.075 211 221.408 211H181.216ZM198.624 195.64H223.2C227.723 195.64 231.307 194.403 233.952 191.928C236.683 189.368 238.048 185.997 238.048 181.816C238.048 177.635 236.683 174.264 233.952 171.704C231.307 169.144 227.723 167.864 223.2 167.864H198.624V195.64ZM198.624 152.632H222.304C225.888 152.632 228.747 151.608 230.88 149.56C233.013 147.427 234.08 144.696 234.08 141.368C234.08 138.04 233.013 135.395 230.88 133.432C228.747 131.469 225.888 130.488 222.304 130.488H198.624V152.632ZM266.9 211V114.104H283.668V155.064L281.364 152.632C282.985 148.451 285.631 145.293 289.3 143.16C293.055 140.941 297.407 139.832 302.356 139.832C307.476 139.832 311.999 140.941 315.924 143.16C319.935 145.379 323.049 148.493 325.268 152.504C327.487 156.429 328.596 160.995 328.596 166.2V211H311.828V170.168C311.828 167.096 311.231 164.451 310.036 162.232C308.841 160.013 307.177 158.307 305.044 157.112C302.996 155.832 300.564 155.192 297.748 155.192C295.017 155.192 292.585 155.832 290.452 157.112C288.319 158.307 286.655 160.013 285.46 162.232C284.265 164.451 283.668 167.096 283.668 170.168V211H266.9ZM366.199 212.536C360.823 212.536 356.13 211.341 352.119 208.952C348.194 206.563 345.164 203.235 343.031 198.968C340.983 194.701 339.959 189.709 339.959 183.992V141.368H356.727V182.584C356.727 185.485 357.282 188.045 358.391 190.264C359.586 192.397 361.25 194.104 363.383 195.384C365.602 196.579 368.076 197.176 370.807 197.176C373.538 197.176 375.97 196.579 378.103 195.384C380.236 194.104 381.9 192.355 383.095 190.136C384.29 187.917 384.887 185.272 384.887 182.2V141.368H401.655V211H385.783V197.304L387.191 199.736C385.57 204.003 382.882 207.203 379.127 209.336C375.458 211.469 371.148 212.536 366.199 212.536ZM415.834 211V141.368H431.578V157.496L429.786 154.808C431.066 149.773 433.626 146.019 437.466 143.544C441.306 141.069 445.829 139.832 451.034 139.832C456.751 139.832 461.786 141.325 466.138 144.312C470.49 147.299 473.306 151.224 474.586 156.088L469.85 156.472C471.983 150.925 475.183 146.787 479.45 144.056C483.717 141.24 488.623 139.832 494.17 139.832C499.119 139.832 503.514 140.941 507.354 143.16C511.279 145.379 514.351 148.493 516.57 152.504C518.789 156.429 519.898 160.995 519.898 166.2V211H503.13V170.168C503.13 167.096 502.575 164.451 501.466 162.232C500.357 160.013 498.821 158.307 496.858 157.112C494.895 155.832 492.506 155.192 489.69 155.192C487.045 155.192 484.698 155.832 482.65 157.112C480.602 158.307 479.023 160.013 477.914 162.232C476.805 164.451 476.25 167.096 476.25 170.168V211H459.482V170.168C459.482 167.096 458.927 164.451 457.818 162.232C456.709 160.013 455.13 158.307 453.082 157.112C451.119 155.832 448.773 155.192 446.042 155.192C443.397 155.192 441.05 155.832 439.002 157.112C436.954 158.307 435.375 160.013 434.266 162.232C433.157 164.451 432.602 167.096 432.602 170.168V211H415.834ZM532.676 211V141.368H549.444V211H532.676ZM532.676 133.56V115.64H549.444V133.56H532.676Z" fill="black"/>
</svg>
