<svg width="1024" height="1024" viewBox="0 0 1024 1024" xmlns="http://www.w3.org/2000/svg" preserveAspectRatio="xMidYMid meet"><svg x="361" y="478" width="492" height="130" xmlns="http://www.w3.org/2000/svg" preserveAspectRatio="none"><svg version="1.1" xmlns="http://www.w3.org/2000/svg" style="display: block;" width="492" height="130" viewBox="144.49 35.96 1769.63 467.58" preserveAspectRatio="none"><g id="svg-group-1f2745b7-2556-490a-b948-800d1b35551d">
<path transform="translate(0,0)" fill="rgb(154,162,176)" d="M 1889.79 35.9881 L 1907.87 35.9555 C 1906.54 63.3764 1907.73 101.403 1907.73 129.459 L 1907.75 315.069 L 1889.75 315.145 L 1889.79 35.9881 z"/>
<path transform="translate(0,0)" fill="rgb(27,126,228)" d="M 312.488 466.372 C 316.53 475.774 319.341 469.12 324.994 468.159 L 325.342 469.487 L 323.679 472.091 L 324.938 476.607 C 320.862 485.383 289.96 497.807 280.313 501.813 L 277.034 502.097 C 272.29 502.486 267.316 503.54 263.757 500.519 C 264.601 489.676 303.421 473.086 312.488 466.372 z"/>
<path transform="translate(0,0)" fill="rgb(12,53,116)" d="M 150.74 478.663 C 153.694 478.663 192.955 481.356 192.416 481.184 L 191.864 482.321 C 185.005 485.063 163.287 486.086 155.358 483.74 C 152.362 482.854 152.346 481.503 150.74 478.663 z"/>
</g></svg></svg><svg x="177" y="360" width="670" height="303" xmlns="http://www.w3.org/2000/svg" preserveAspectRatio="none"><svg version="1.1" xmlns="http://www.w3.org/2000/svg" style="display: block;" width="670" height="303" viewBox="0.00 -0.59 2048.00 926.19" preserveAspectRatio="none"><g id="svg-group-6a8cc599-6fdd-4026-a1f7-54fdda2bab99">
<defs>
	<linearGradient id="Gradient1" gradientUnits="userSpaceOnUse" x1="663.86" y1="825.761" x2="662.379" y2="811.869">
		<stop class="stop0" offset="0" stop-opacity="1" stop-color="rgba(33, 183, 231, 1)"/>
		<stop class="stop1" offset="1" stop-opacity="1" stop-color="rgba(16, 155, 214, 1)"/>
	</linearGradient>
	<linearGradient id="Gradient2" gradientUnits="userSpaceOnUse" x1="719.558" y1="636.34" x2="700.589" y2="611.664">
		<stop class="stop0" offset="0" stop-opacity="1" stop-color="rgba(34, 162, 235, 1)"/>
		<stop class="stop1" offset="1" stop-opacity="1" stop-color="rgba(112, 153, 187, 1)"/>
	</linearGradient>
	<linearGradient id="Gradient3" gradientUnits="userSpaceOnUse" x1="737.279" y1="602.072" x2="687.601" y2="556.461">
		<stop class="stop0" offset="0" stop-opacity="1" stop-color="rgba(46, 197, 238, 1)"/>
		<stop class="stop1" offset="1" stop-opacity="1" stop-color="rgba(34, 162, 235, 1)"/>
	</linearGradient>
	<linearGradient id="Gradient4" gradientUnits="userSpaceOnUse" x1="704.54" y1="662.465" x2="686.387" y2="609.252">
		<stop class="stop0" offset="0" stop-opacity="1" stop-color="rgba(34, 162, 235, 1)"/>
		<stop class="stop1" offset="1" stop-opacity="1" stop-color="rgba(60, 131, 157, 1)"/>
	</linearGradient>
	<linearGradient id="Gradient5" gradientUnits="userSpaceOnUse" x1="378.864" y1="266.319" x2="630.243" y2="153.81">
		<stop class="stop0" offset="0" stop-opacity="1" stop-color="rgba(17, 41, 85, 1)"/>
		<stop class="stop1" offset="1" stop-opacity="1" stop-color="rgba(11, 53, 118, 1)"/>
	</linearGradient>
	<linearGradient id="Gradient6" gradientUnits="userSpaceOnUse" x1="377.319" y1="317.431" x2="383.934" y2="322.536">
		<stop class="stop0" offset="0" stop-opacity="1" stop-color="rgba(11, 53, 118, 1)"/>
		<stop class="stop1" offset="1" stop-opacity="1" stop-color="rgba(11, 53, 118, 1)"/>
	</linearGradient>
	<linearGradient id="Gradient7" gradientUnits="userSpaceOnUse" x1="384.934" y1="434.703" x2="346.457" y2="435.523">
		<stop class="stop0" offset="0" stop-opacity="1" stop-color="rgba(17, 41, 85, 1)"/>
		<stop class="stop1" offset="1" stop-opacity="1" stop-color="rgba(11, 53, 118, 1)"/>
	</linearGradient>
	<linearGradient id="Gradient8" gradientUnits="userSpaceOnUse" x1="333.773" y1="421.008" x2="365.15" y2="423.214">
		<stop class="stop0" offset="0" stop-opacity="1" stop-color="rgba(17, 41, 85, 1)"/>
		<stop class="stop1" offset="1" stop-opacity="1" stop-color="rgba(11, 53, 118, 1)"/>
	</linearGradient>
	<linearGradient id="Gradient9" gradientUnits="userSpaceOnUse" x1="392.468" y1="293.302" x2="454.506" y2="382.075">
		<stop class="stop0" offset="0" stop-opacity="1" stop-color="rgba(34, 162, 235, 1)"/>
		<stop class="stop1" offset="1" stop-opacity="1" stop-color="rgba(112, 153, 187, 1)"/>
	</linearGradient>
	<linearGradient id="Gradient10" gradientUnits="userSpaceOnUse" x1="449.424" y1="595.564" x2="496.921" y2="549.52">
		<stop class="stop0" offset="0" stop-opacity="1" stop-color="rgba(17, 41, 85, 1)"/>
		<stop class="stop1" offset="1" stop-opacity="1" stop-color="rgba(11, 53, 118, 1)"/>
	</linearGradient>
	<linearGradient id="Gradient11" gradientUnits="userSpaceOnUse" x1="645.898" y1="372.23" x2="682.532" y2="308.048">
		<stop class="stop0" offset="0" stop-opacity="1" stop-color="rgba(86, 166, 123, 1)"/>
		<stop class="stop1" offset="1" stop-opacity="1" stop-color="rgba(86, 166, 123, 1)"/>
	</linearGradient>
	<linearGradient id="Gradient12" gradientUnits="userSpaceOnUse" x1="490.782" y1="317.286" x2="671.245" y2="598.2">
		<stop class="stop0" offset="0" stop-opacity="1" stop-color="rgba(0, 0, 0, 1)"/>
		<stop class="stop1" offset="1" stop-opacity="1" stop-color="rgba(5, 15, 36, 1)"/>
	</linearGradient>
	<linearGradient id="Gradient13" gradientUnits="userSpaceOnUse" x1="1148.72" y1="337.212" x2="1206.51" y2="348.821">
		<stop class="stop0" offset="0" stop-opacity="1" stop-color="rgba(65, 145, 150, 1)"/>
		<stop class="stop1" offset="1" stop-opacity="1" stop-color="rgba(60, 131, 157, 1)"/>
	</linearGradient>
	<linearGradient id="Gradient14" gradientUnits="userSpaceOnUse" x1="1019.39" y1="258.904" x2="1206.73" y2="270.044">
		<stop class="stop0" offset="0" stop-opacity="1" stop-color="rgba(86, 166, 123, 1)"/>
		<stop class="stop1" offset="1" stop-opacity="1" stop-color="rgba(67, 142, 159, 1)"/>
	</linearGradient>
	<linearGradient id="Gradient15" gradientUnits="userSpaceOnUse" x1="717.339" y1="79.5981" x2="704.982" y2="166.161">
		<stop class="stop0" offset="0" stop-opacity="1" stop-color="rgba(0, 172, 231, 1)"/>
		<stop class="stop1" offset="1" stop-opacity="1" stop-color="rgba(189, 227, 235, 1)"/>
	</linearGradient>
	<linearGradient id="Gradient16" gradientUnits="userSpaceOnUse" x1="695.139" y1="242.106" x2="719.739" y2="161.794">
		<stop class="stop0" offset="0" stop-opacity="1" stop-color="rgba(135, 205, 231, 1)"/>
		<stop class="stop1" offset="1" stop-opacity="1" stop-color="rgba(189, 227, 235, 1)"/>
	</linearGradient>
	<linearGradient id="Gradient17" gradientUnits="userSpaceOnUse" x1="821.82" y1="308.533" x2="806.639" y2="73.9999">
		<stop class="stop0" offset="0" stop-opacity="1" stop-color="rgba(16, 155, 214, 1)"/>
		<stop class="stop1" offset="1" stop-opacity="1" stop-color="rgba(31, 190, 211, 1)"/>
	</linearGradient>
	<linearGradient id="Gradient18" gradientUnits="userSpaceOnUse" x1="692.317" y1="93.6244" x2="1135.7" y2="136.953">
		<stop class="stop0" offset="0" stop-opacity="1" stop-color="rgba(139, 219, 69, 1)"/>
		<stop class="stop1" offset="1" stop-opacity="1" stop-color="rgba(65, 145, 143, 1)"/>
	</linearGradient>
	<linearGradient id="Gradient19" gradientUnits="userSpaceOnUse" x1="493.571" y1="836.597" x2="559.901" y2="912.759">
		<stop class="stop0" offset="0" stop-opacity="1" stop-color="rgba(111, 180, 115, 1)"/>
		<stop class="stop1" offset="1" stop-opacity="1" stop-color="rgba(60, 131, 157, 1)"/>
	</linearGradient>
	<linearGradient id="Gradient20" gradientUnits="userSpaceOnUse" x1="278.451" y1="659.627" x2="464.896" y2="872.092">
		<stop class="stop0" offset="0" stop-opacity="1" stop-color="rgba(155, 239, 27, 1)"/>
		<stop class="stop1" offset="1" stop-opacity="1" stop-color="rgba(133, 197, 97, 1)"/>
	</linearGradient>
</defs>
<path transform="translate(0,0)" fill="rgba(150, 161, 176, 1)" d="M 1897.57 360.87 L 1915.2 360.897 C 1923.26 375.876 1930.03 392.759 1936.93 408.422 L 1968.43 479.66 C 1985.28 518.237 2004.64 557.764 2021.58 596.118 L 2003.71 596.257 C 1991.01 572.142 1982.11 539.393 1965.86 516.854 C 1964.63 515.15 1908.34 517.573 1902.06 515.334 C 1901.1 514.99 1882.66 517.07 1879.69 517.414 L 1879.68 517.396 C 1876.02 520.251 1874.63 520.251 1873.83 523.944 L 1875.14 525.711 C 1884.19 531.038 1943.76 528.991 1958.53 528.945 C 1961.58 534.198 1966.18 546.159 1968.99 552.346 C 1975.73 566.958 1982.67 581.473 1989.82 595.889 C 1984.98 596.229 1978.29 597.45 1973.32 598.222 C 1968.64 591.656 1954.73 555.802 1948.68 544.134 L 1847.78 544.243 C 1855.18 529.975 1862.21 514.488 1869.33 499.926 C 1883.84 499.771 1912.63 502.18 1923.62 500.802 C 1926.27 498.836 1927.51 498.275 1926 495.089 C 1915.63 473.324 1906.19 450.754 1895.73 429.069 C 1900.1 422.674 1903.23 418.061 1906.83 411.248 C 1917.33 438.711 1931.89 468.573 1942.96 496.11 C 1944.97 501.124 1952.95 503.64 1957.54 499.383 C 1957.94 496.622 1956.98 493.804 1955.95 491.263 C 1944.11 462.073 1929.87 433.927 1918.18 404.674 C 1915.62 398.251 1913.13 391.82 1909.81 385.738 L 1907.5 385.846 C 1901.25 390.271 1885.44 430.669 1880.86 440.653 C 1857.29 492.9 1832.81 544.732 1807.44 596.126 L 1788.91 596.165 C 1797.23 583.259 1806.59 561.168 1813.17 546.784 L 1845.39 476.946 C 1862.08 440.399 1879.99 403.774 1896.2 366.982 C 1896.9 365.399 1897.36 362.605 1897.57 360.87 z"/>
<path transform="translate(0,0)" fill="rgba(150, 161, 176, 1)" d="M 1581.57 356.41 C 1581.91 356.402 1582.24 356.398 1582.58 356.396 C 1604.46 356.287 1632.42 366.594 1647.98 382.301 C 1681.83 416.462 1676.84 457.731 1676.81 501.338 L 1676.76 596.18 L 1661.3 596.35 L 1661.34 496.093 C 1661.35 481.437 1662.13 455.943 1660.56 442.744 C 1659.54 433.946 1657.07 425.378 1653.26 417.383 C 1620.71 348.878 1527.38 362.361 1504.44 428.494 C 1487.71 397.218 1476.16 382.439 1441.15 373.648 C 1414.32 369.388 1390.82 376.089 1370.91 394.965 C 1347.2 417.445 1344.3 441.032 1344.97 472.437 C 1345.26 486.073 1344.97 500.851 1344.99 514.731 L 1344.92 597.503 C 1340.33 597.913 1333.46 597.767 1328.65 597.794 C 1326.43 575.529 1329.04 544.84 1329.79 522.473 C 1330.69 495.724 1328.08 465.178 1331.33 438.88 C 1334.45 414.671 1346.98 392.665 1366.2 377.618 C 1410.31 343.384 1469.85 353.13 1503.67 396.875 C 1528.76 371.131 1544.25 359.738 1581.57 356.41 z"/>
<path transform="translate(0,0)" fill="rgba(150, 161, 176, 1)" d="M 1423.11 385.382 C 1441.89 384.258 1460.25 390.972 1473.58 404.277 C 1483.97 414.663 1491.21 427.772 1494.47 442.094 C 1497.57 455.327 1496.29 489.572 1496.24 504.671 L 1496.26 596.188 L 1480.97 596.359 L 1481 505.502 C 1481.16 458.748 1487.61 407.599 1426.91 400.71 C 1411.63 401.167 1400.9 406.537 1389.98 416.655 C 1366.44 438.537 1375.94 470.49 1373.98 499.529 C 1372.1 531.528 1371.72 563.957 1373.28 595.763 C 1373.38 597.678 1366.51 596.503 1365.58 596.373 C 1362.81 595.984 1357.31 595.646 1357.36 591.684 C 1357.92 549.78 1355.33 507.441 1358.78 465.663 C 1359.47 457.391 1357.89 448.424 1359.4 440.158 C 1366.13 407.871 1390.98 388.565 1423.11 385.382 z"/>
<path transform="translate(0,0)" fill="rgba(150, 161, 176, 1)" d="M 1575.11 385.335 C 1576.48 385.302 1577.84 385.282 1579.21 385.275 C 1596.91 385.187 1614.26 389.783 1627.08 402.557 C 1654.16 429.554 1649.18 466.275 1649.17 501.121 L 1649.11 595.966 C 1643.9 596.094 1639.06 597.099 1633.94 598.004 L 1633.9 506.205 C 1634.01 464.743 1641.63 407.52 1585.45 400.507 C 1582.63 400.565 1579.25 400.632 1576.48 400.953 C 1561.2 402.71 1547.26 410.527 1537.8 422.651 C 1532.39 429.601 1527.31 440.859 1526.32 449.668 C 1522.71 481.7 1524.24 514.267 1523.86 546.463 C 1523.66 563.212 1523.58 579.527 1525.69 596.165 L 1510.03 596.416 L 1509.91 501.085 C 1509.9 487.078 1509 458.817 1511.53 446.05 C 1513.91 433.669 1519.16 422.02 1526.86 412.037 C 1538.88 396.374 1555.77 387.899 1575.11 385.335 z"/>
<path transform="translate(0,0)" fill="rgba(150, 161, 176, 1)" d="M 1871.32 359.551 C 1874.37 360.67 1880.58 361.063 1884.04 361.415 L 1884.24 363.069 C 1874.62 385.967 1863.57 407.818 1853.1 430.267 L 1786.9 571.602 C 1783.26 579.398 1779.63 587.208 1776.77 595.33 C 1776.23 595.611 1775.69 595.892 1775.16 596.173 L 1757.84 596.138 C 1768.66 574.881 1779.24 553.498 1789.57 531.993 L 1839.53 424.226 C 1844.77 412.737 1864.57 365.723 1871.32 359.551 z"/>
<path transform="translate(0,0)" fill="rgba(150, 161, 176, 1)" d="M 1731.79 360.814 L 1746.74 361.08 C 1747.79 386.978 1747.02 417.636 1747.02 443.807 L 1747.04 596.141 C 1742.2 596.126 1736.59 596.431 1731.68 596.584 C 1732.56 518.614 1731.76 438.912 1731.79 360.814 z"/>
<path transform="translate(0,0)" fill="rgba(150, 161, 176, 1)" d="M 1704.1 360.884 L 1719.36 360.866 C 1719.57 388.864 1719.37 417.042 1719.31 445.049 C 1719.29 455.416 1718.1 466.313 1718.01 476.889 L 1718.01 596.205 L 1702.48 596.221 C 1705.59 581.867 1702.16 568.991 1702.72 554.639 C 1705.2 490.204 1704.13 425.416 1704.1 360.884 z"/>
<path transform="translate(0,0)" fill="rgba(150, 161, 176, 1)" d="M 946.032 359.213 L 961.36 359.163 L 961.268 478.988 C 961.254 493.347 959.642 545.071 964.236 554.129 C 969.12 555.507 996.392 555.032 1002.83 555.028 L 1080.78 554.949 L 1080.75 568.842 L 945.988 568.932 L 946.032 359.213 z"/>
<path transform="translate(0,0)" fill="rgba(12, 49, 105, 1)" d="M 940.421 488.829 L 941.317 489.833 C 941.882 499.355 942.1 557.378 940.522 564.117 L 938.414 563.43 C 938.629 551.51 936.506 494.735 940.421 488.829 z"/>
<path transform="translate(0,0)" fill="rgba(12, 49, 105, 1)" d="M 966.933 530.115 C 965.133 525.133 965.225 501.512 966.919 495.827 C 966.934 507.118 967.119 518.866 966.933 530.115 z"/>
<path transform="translate(0,0)" fill="rgba(5, 15, 36, 1)" fill-opacity="0.607843" d="M 966.919 495.827 C 968.616 501.382 968.812 525.347 966.933 530.115 C 967.119 518.866 966.934 507.118 966.919 495.827 z"/>
<path transform="translate(0,0)" fill="rgba(150, 224, 46, 1)" d="M 180.036 273.089 L 182.256 271.725 C 183.07 278.533 183.49 283.61 185.579 290.153 L 188.104 286.04 C 197.705 342.356 210.765 358.223 245.112 401.603 L 251.681 409.633 C 275.173 438.456 307.662 474.343 333.373 501.234 C 337.461 506.118 342.021 511.94 346.802 515.997 C 351.472 519.619 353.611 522.775 357.166 527.414 C 360.447 527.291 362.233 526.143 365.138 526.963 C 373.032 532.107 376.256 539.713 376.409 548.875 C 385.667 556.667 415.973 587.563 422.616 596.886 C 434.142 605.956 447.041 622.204 457.482 632.654 C 465.872 641.051 474.558 648.12 482.586 656.897 C 488.224 663.061 492.892 671.407 498.148 677.069 C 504.434 686.084 519.176 698.835 524.162 706.319 C 527.446 709.731 535.388 717.664 537.37 721.354 C 542.533 727.482 541.807 727.061 548.749 730.496 C 549.039 730.637 549.33 730.774 549.623 730.909 L 548.446 733.88 C 551.563 738.529 556.174 741.357 559.35 745.577 C 563.912 750.937 571.557 760.512 576.284 765.196 C 577.314 766.045 582.853 770.488 583.44 771.145 C 585.625 775.263 586.55 776.188 589.775 779.625 C 595.435 784.308 612.283 803.527 618.77 810.084 L 624.202 815.995 C 625.856 817.748 632.384 825.207 634.021 825.482 C 636.999 827.778 639.609 829.997 641.276 833.494 L 640.964 834.481 C 643.968 837.565 647.716 841.641 650.877 844.413 C 651.72 845.303 652.95 846.935 653.755 847.935 L 653.375 849.349 C 649.213 848.118 648.172 846.529 645.194 843.258 C 636.176 849.055 624.69 852.36 614.56 856.05 C 566.333 873.617 518.807 893.407 470.28 910.111 C 463.782 912.348 438.962 918.39 432.499 917.919 C 421.282 920.465 390.052 919.648 377.933 918.179 C 351.254 917.046 311.889 902.405 289.202 888.779 C 235.782 856.696 202.486 810.218 186.934 750.577 C 184.578 742.661 185.763 736.131 182.352 728.088 C 175.251 718.282 155.904 697.065 147.333 687.08 C 120.095 655.682 93.1283 624.05 66.4367 592.187 C 39.277 560.127 7.01313 529.806 3.18158 485.635 C 2.84854 481.795 2.81473 478.33 0 475.49 L 0 472.504 C 3.34554 468.388 3.09402 465.476 3.32964 460.404 C 5.959 403.801 60.7779 371.419 99.8318 337.257 C 123.25 316.772 153.817 292.536 180.036 273.089 z"/>
<path transform="translate(0,0)" fill="url(#Gradient20)" d="M 405.562 580.58 C 408.836 583.953 419.232 595.278 422.616 596.886 C 434.142 605.956 447.041 622.204 457.482 632.654 C 465.872 641.051 474.558 648.12 482.586 656.897 C 488.224 663.061 492.892 671.407 498.148 677.069 C 504.434 686.084 519.176 698.835 524.162 706.319 C 527.446 709.731 535.388 717.664 537.37 721.354 C 542.533 727.482 541.807 727.061 548.749 730.496 C 549.039 730.637 549.33 730.774 549.623 730.909 L 548.446 733.88 C 551.563 738.529 556.174 741.357 559.35 745.577 C 563.912 750.937 571.557 760.512 576.284 765.196 C 577.314 766.045 582.853 770.488 583.44 771.145 C 585.625 775.263 586.55 776.188 589.775 779.625 C 595.435 784.308 612.283 803.527 618.77 810.084 L 624.202 815.995 C 625.856 817.748 632.384 825.207 634.021 825.482 C 636.999 827.778 639.609 829.997 641.276 833.494 L 640.964 834.481 C 643.968 837.565 647.716 841.641 650.877 844.413 C 651.72 845.303 652.95 846.935 653.755 847.935 L 653.375 849.349 C 649.213 848.118 648.172 846.529 645.194 843.258 C 636.176 849.055 624.69 852.36 614.56 856.05 C 566.333 873.617 518.807 893.407 470.28 910.111 C 463.782 912.348 438.962 918.39 432.499 917.919 C 421.282 920.465 390.052 919.648 377.933 918.179 C 351.254 917.046 311.889 902.405 289.202 888.779 C 235.782 856.696 202.486 810.218 186.934 750.577 C 187.212 746.449 187.209 744.519 188.537 740.636 C 191.829 737.708 251.603 692.699 252.662 692.544 L 253.33 697.325 L 254.395 697.027 L 254.67 691.773 C 271.333 675.233 279.142 670.45 300.38 661.255 C 308.27 657.839 321.726 642.351 329.84 639.125 L 330.807 640.386 L 332.396 640.287 C 334.455 638.975 337.103 637.752 337.888 635.661 L 335.436 635.497 C 338.362 632.398 340.591 632.614 344.19 633.787 C 348.161 632.123 347.16 629.232 348.221 628.681 C 351.593 626.93 354.571 626.19 357.722 623.317 L 357.409 620.049 L 358.748 618.605 L 359.524 621.501 L 360.418 620.385 C 359.662 618.084 359.166 616.839 359.667 614.354 L 359.654 614.33 C 362.699 614.326 362.525 616.496 365.614 616.507 C 377.825 606.425 390.664 596.671 402.749 586.476 C 403.785 585.602 405.102 582.001 405.562 580.58 z"/>
<path transform="translate(0,0)" fill="url(#Gradient19)" d="M 576.284 765.196 C 577.314 766.045 582.853 770.488 583.44 771.145 C 585.625 775.263 586.55 776.188 589.775 779.625 C 595.435 784.308 612.283 803.527 618.77 810.084 L 624.202 815.995 C 625.856 817.748 632.384 825.207 634.021 825.482 C 636.999 827.778 639.609 829.997 641.276 833.494 L 640.964 834.481 C 643.968 837.565 647.716 841.641 650.877 844.413 C 651.72 845.303 652.95 846.935 653.755 847.935 L 653.375 849.349 C 649.213 848.118 648.172 846.529 645.194 843.258 C 636.176 849.055 624.69 852.36 614.56 856.05 C 566.333 873.617 518.807 893.407 470.28 910.111 C 463.782 912.348 438.962 918.39 432.499 917.919 C 428.897 916.915 426.45 917.614 422.075 916.199 L 421.626 914.747 C 423.908 911.336 425.585 908.43 427.599 904.868 C 428.101 903.657 442.15 888.78 444.04 887.858 C 449.487 884.932 463.702 865.976 469.512 860.638 C 474.965 855.629 480.855 848.782 486.811 843.567 C 502.26 830.039 517.313 816.292 533.02 803.044 C 537.48 799.283 544.954 795.545 549.771 791.876 C 557.101 782.662 575.9 776.899 576.284 765.196 z"/>
<path transform="translate(0,0)" fill="rgba(135, 205, 231, 1)" d="M 589.775 779.625 C 595.435 784.308 612.283 803.527 618.77 810.084 L 624.202 815.995 C 625.856 817.748 632.384 825.207 634.021 825.482 C 636.999 827.778 639.609 829.997 641.276 833.494 L 640.964 834.481 C 643.968 837.565 647.716 841.641 650.877 844.413 C 651.72 845.303 652.95 846.935 653.755 847.935 L 653.375 849.349 C 649.213 848.118 648.172 846.529 645.194 843.258 C 633.36 831.081 621.746 818.693 610.358 806.099 C 604.317 799.528 593.719 788.521 588.909 781.5 L 589.775 779.625 z"/>
<path transform="translate(0,0)" fill="rgba(111, 180, 115, 1)" d="M 559.35 745.577 C 563.912 750.937 571.557 760.512 576.284 765.196 C 575.9 776.899 557.101 782.662 549.771 791.876 C 544.954 795.545 537.48 799.283 533.02 803.044 C 517.313 816.292 502.26 830.039 486.811 843.567 C 480.855 848.782 474.965 855.629 469.512 860.638 C 463.702 865.976 449.487 884.932 444.04 887.858 C 446.095 882.364 449.949 877.688 453.11 872.862 C 470.667 846.058 493.636 831.441 517.433 811.038 C 525.669 803.841 528.96 799.326 537.923 791.899 C 542.941 787.739 571.481 773.627 573.048 767.495 C 573.767 764.682 561.311 751.455 558.006 748.071 L 559.35 745.577 z"/>
<path transform="translate(0,0)" fill="rgba(111, 180, 115, 1)" d="M 377.933 918.179 C 393.293 915.489 401.451 919.541 414.675 915.871 C 417.173 915.178 421.662 908.18 426.863 905.271 L 427.599 904.868 C 425.585 908.43 423.908 911.336 421.626 914.747 L 422.075 916.199 C 426.45 917.614 428.897 916.915 432.499 917.919 C 421.282 920.465 390.052 919.648 377.933 918.179 z"/>
<path transform="translate(0,0)" fill="rgba(111, 180, 115, 1)" d="M 524.162 706.319 C 527.446 709.731 535.388 717.664 537.37 721.354 C 542.533 727.482 541.807 727.061 548.749 730.496 C 549.039 730.637 549.33 730.774 549.623 730.909 L 548.446 733.88 C 551.563 738.529 556.174 741.357 559.35 745.577 L 558.006 748.071 C 554.004 746.545 526.209 711.979 524.162 706.319 z"/>
<path transform="translate(0,0)" fill="rgba(29, 89, 42, 1)" d="M 180.036 273.089 L 182.256 271.725 C 183.07 278.533 183.49 283.61 185.579 290.153 L 188.104 286.04 C 197.705 342.356 210.765 358.223 245.112 401.603 L 251.681 409.633 C 275.173 438.456 307.662 474.343 333.373 501.234 C 337.461 506.118 342.021 511.94 346.802 515.997 C 351.472 519.619 353.611 522.775 357.166 527.414 C 360.447 527.291 362.233 526.143 365.138 526.963 C 373.032 532.107 376.256 539.713 376.409 548.875 C 385.667 556.667 415.973 587.563 422.616 596.886 C 419.232 595.278 408.836 583.953 405.562 580.58 C 405.102 582.001 403.785 585.602 402.749 586.476 C 390.664 596.671 377.825 606.425 365.614 616.507 C 362.525 616.496 362.699 614.326 359.654 614.33 L 359.667 614.354 C 359.166 616.839 359.662 618.084 360.418 620.385 L 359.524 621.501 L 358.748 618.605 L 357.409 620.049 L 357.722 623.317 C 354.571 626.19 351.593 626.93 348.221 628.681 C 347.16 629.232 348.161 632.123 344.19 633.787 C 340.591 632.614 338.362 632.398 335.436 635.497 L 337.888 635.661 C 337.103 637.752 334.455 638.975 332.396 640.287 L 330.807 640.386 L 329.84 639.125 C 321.726 642.351 308.27 657.839 300.38 661.255 C 279.142 670.45 271.333 675.233 254.67 691.773 L 254.395 697.027 L 253.33 697.325 L 252.662 692.544 C 251.603 692.699 191.829 737.708 188.537 740.636 C 187.209 744.519 187.212 746.449 186.934 750.577 C 184.578 742.661 185.763 736.131 182.352 728.088 C 183.28 722.996 181.699 714.923 183.044 706.701 L 182.056 404.021 C 182.005 386.187 183.587 283.212 180.036 273.089 z"/>
<path transform="translate(0,0)" fill="rgba(75, 163, 47, 1)" d="M 386.904 562.21 L 405.562 580.58 C 405.102 582.001 403.785 585.602 402.749 586.476 C 390.664 596.671 377.825 606.425 365.614 616.507 C 362.525 616.496 362.699 614.326 359.654 614.33 L 359.667 614.354 C 359.166 616.839 359.662 618.084 360.418 620.385 L 359.524 621.501 L 358.748 618.605 L 357.409 620.049 L 357.722 623.317 C 354.571 626.19 351.593 626.93 348.221 628.681 C 347.16 629.232 348.161 632.123 344.19 633.787 C 340.591 632.614 338.362 632.398 335.436 635.497 L 337.888 635.661 C 337.103 637.752 334.455 638.975 332.396 640.287 L 330.807 640.386 L 329.84 639.125 C 321.726 642.351 308.27 657.839 300.38 661.255 C 279.142 670.45 271.333 675.233 254.67 691.773 L 254.395 697.027 L 253.33 697.325 L 252.662 692.544 C 251.603 692.699 191.829 737.708 188.537 740.636 C 187.209 744.519 187.212 746.449 186.934 750.577 C 184.578 742.661 185.763 736.131 182.352 728.088 C 183.28 722.996 181.699 714.923 183.044 706.701 C 184.564 710.593 183.494 722.197 185.621 729.619 L 186.1 727.654 C 204.154 716.743 221.536 704.755 238.149 691.756 C 243.31 687.693 259.254 672.578 262.567 670.88 L 265.118 672.104 L 266.706 671.073 C 266.877 669.529 267.023 668.449 267.326 666.925 C 276.569 663.676 285.323 652.933 294.272 646.754 L 295.729 648.059 C 297.66 647.352 298.424 644.026 299.652 641.451 C 301.607 642.059 303.158 642.602 304.954 642.022 C 305.326 640.95 306.128 638.454 307.095 637.879 C 323.27 628.259 337.154 615.626 351.513 603.589 C 357.72 598.385 364.622 593.896 370.488 588.224 C 372.838 585.953 375.327 583.749 377.628 581.419 C 380.126 578.813 384.475 575.135 386.132 572.157 C 386.537 571.429 386.856 563.374 386.904 562.21 z"/>
<path transform="translate(0,0)" fill="rgba(111, 180, 115, 1)" d="M 188.104 286.04 C 197.705 342.356 210.765 358.223 245.112 401.603 L 251.681 409.633 C 275.173 438.456 307.662 474.343 333.373 501.234 C 337.461 506.118 342.021 511.94 346.802 515.997 C 351.472 519.619 353.611 522.775 357.166 527.414 C 360.447 527.291 362.233 526.143 365.138 526.963 C 373.032 532.107 376.256 539.713 376.409 548.875 C 385.667 556.667 415.973 587.563 422.616 596.886 C 419.232 595.278 408.836 583.953 405.562 580.58 L 386.904 562.21 C 376.333 553.227 357.308 531.932 347.157 521.157 C 321.294 493.53 295.991 465.384 271.265 436.734 C 247.813 409.651 221.198 379.193 203.602 347.949 C 194.032 330.957 189.302 309.108 185.579 290.153 L 188.104 286.04 z"/>
<path transform="translate(0,0)" fill="rgba(12, 49, 105, 1)" d="M 357.166 527.414 C 360.447 527.291 362.233 526.143 365.138 526.963 C 373.032 532.107 376.256 539.713 376.409 548.875 L 357.166 527.414 z"/>
<path transform="translate(0,0)" fill="url(#Gradient18)" d="M 611.388 0 L 679.796 0 L 941.7 0 C 946.483 4.3293 977.926 5.83776 988.092 8.27194 C 1010.89 13.7318 1025.98 19.2635 1046.99 29.7044 C 1058.57 35.2967 1087.34 51.4871 1096.11 61.2892 C 1103.73 66.5675 1123.72 84.9144 1128.77 92.5937 C 1137.24 100.976 1143.45 110.913 1150.01 120.748 C 1180.62 166.642 1194.83 215.925 1195.14 271.031 L 1195.09 333.016 C 1195.1 339.182 1195.64 359.886 1195.05 365.151 C 1199.99 393.425 1193.28 429.02 1195.22 458.563 C 1196.37 476.159 1194.42 495.339 1196.46 513.195 C 1196.59 515.486 1195.23 520.51 1194.56 522.789 C 1192.06 527.249 1194.55 533.491 1192.24 539.612 C 1192.24 534.605 1192.86 525.774 1190.99 521.623 L 1188.15 520.555 C 1188.01 519.796 1188.08 514.204 1188.09 513.006 L 1188.54 512.9 L 1188.7 510.504 L 1188.22 510.289 C 1187.92 513.746 1185.32 518.753 1182.98 521.37 C 1189.74 499.178 1194.32 463.445 1188.63 440.669 C 1188.11 439.711 1187.46 436.116 1187.18 434.832 C 1187.26 430.419 1185.23 423.152 1184.16 418.624 C 1183.25 416.224 1182.31 413.008 1181.59 410.54 C 1171.5 375.853 1154.14 344.561 1132.18 315.984 C 1124.59 306.098 1115.31 297.453 1107.74 287.653 C 1104.4 290.372 1104.38 290.542 1100.71 287.588 C 1096.76 288.031 1091.15 292.567 1087.38 294.418 C 1084.76 295.704 1078.89 292.2 1078.28 292.648 C 1069.21 299.309 1062.04 293.785 1051.84 299.929 C 1050.82 300.544 1045.53 300.251 1044.21 301.099 C 1041.66 303.291 1039.75 307.962 1036.5 309.124 C 1027.44 305.154 1026.23 312.432 1019.42 313.423 C 1007.02 315.223 994.45 316.848 982.032 318.607 C 969.165 319.806 965.429 313.579 952.565 320.041 C 949.301 318.219 942.42 313.842 939.104 313.678 C 936.956 315.147 935.869 316.51 933.114 316.056 C 921.956 314.217 894.763 304.592 885.599 306.824 C 880.063 308.171 872.03 302.164 866.466 300.602 C 860.299 298.87 850.114 300.511 844.867 297.483 C 844.325 297.102 841.254 295.394 840.956 295.482 C 832.443 298 823.105 294.518 814.191 294.205 C 807.244 293.962 799.321 294.13 792.479 293.32 C 775.695 291.334 758.676 288.305 741.73 289.683 C 741.73 289.683 736.644 294.029 736.197 294.412 C 725.649 286.778 697.536 252.635 686.297 241.682 C 682.477 238.269 680.358 235.286 675.227 236.263 C 674.326 235.661 669.782 231.513 668.69 230.551 C 653.106 214.205 620.879 182.314 608.774 166.05 C 599.59 158.352 585.226 139.424 573.704 129.003 C 570.993 125.18 569.548 122.784 565.772 119.884 C 539.664 94.3189 513.641 68.3023 485.779 44.5628 C 482.3 41.5978 479.881 39.6724 475.219 40.1563 L 472.796 37.0252 L 473.33 35.6958 C 477.192 36.1836 480.741 38.3107 484.24 40.0934 C 488.089 38.0642 492.099 35.6612 495.793 33.3856 C 525.829 14.881 560.573 4.91956 595.757 3.56121 C 601.162 3.35253 607.241 3.6137 611.388 0 z"/>
<path transform="translate(0,0)" fill="url(#Gradient17)" d="M 611.388 0 L 679.796 0 C 690.085 7.33967 698.426 0.77483 705.182 4.89321 C 703.553 7.93812 700.484 12.402 699.937 15.7552 C 698.718 23.241 705.457 28.0619 700.03 35.7638 C 699.102 37.0819 693.655 88.1859 694.298 91.472 C 695.439 97.307 700.095 104.853 699.152 110.647 C 692.179 114.454 687.694 107.619 678.928 108.764 C 740.076 131.942 806.628 149.427 868.434 171.563 C 875.585 174.124 913.292 186.605 918.235 189.622 C 926.966 192.658 938.876 197.309 947.603 199.525 C 965.382 204.038 981.657 207.329 999.237 212.945 L 1001.58 217.663 C 1018.12 223.138 1064.03 246.299 1074.36 258.244 C 1086.42 266.712 1097.52 277.033 1107.74 287.653 C 1104.4 290.372 1104.38 290.542 1100.71 287.588 C 1096.76 288.031 1091.15 292.567 1087.38 294.418 C 1084.76 295.704 1078.89 292.2 1078.28 292.648 C 1069.21 299.309 1062.04 293.785 1051.84 299.929 C 1050.82 300.544 1045.53 300.251 1044.21 301.099 C 1041.66 303.291 1039.75 307.962 1036.5 309.124 C 1027.44 305.154 1026.23 312.432 1019.42 313.423 C 1007.02 315.223 994.45 316.848 982.032 318.607 C 969.165 319.806 965.429 313.579 952.565 320.041 C 949.301 318.219 942.42 313.842 939.104 313.678 C 936.956 315.147 935.869 316.51 933.114 316.056 C 921.956 314.217 894.763 304.592 885.599 306.824 C 880.063 308.171 872.03 302.164 866.466 300.602 C 860.299 298.87 850.114 300.511 844.867 297.483 C 844.325 297.102 841.254 295.394 840.956 295.482 C 832.443 298 823.105 294.518 814.191 294.205 C 807.244 293.962 799.321 294.13 792.479 293.32 C 775.695 291.334 758.676 288.305 741.73 289.683 C 741.73 289.683 736.644 294.029 736.197 294.412 C 725.649 286.778 697.536 252.635 686.297 241.682 C 682.477 238.269 680.358 235.286 675.227 236.263 C 674.326 235.661 669.782 231.513 668.69 230.551 C 653.106 214.205 620.879 182.314 608.774 166.05 C 599.59 158.352 585.226 139.424 573.704 129.003 C 570.993 125.18 569.548 122.784 565.772 119.884 C 539.664 94.3189 513.641 68.3023 485.779 44.5628 C 482.3 41.5978 479.881 39.6724 475.219 40.1563 L 472.796 37.0252 L 473.33 35.6958 C 477.192 36.1836 480.741 38.3107 484.24 40.0934 C 488.089 38.0642 492.099 35.6612 495.793 33.3856 C 525.829 14.881 560.573 4.91956 595.757 3.56121 C 601.162 3.35253 607.241 3.6137 611.388 0 z"/>
<path transform="translate(0,0)" fill="url(#Gradient16)" d="M 475.219 40.1563 L 472.796 37.0252 L 473.33 35.6958 C 477.192 36.1836 480.741 38.3107 484.24 40.0934 C 494.748 43.7201 504.19 47.1976 514.205 52.1901 C 509.231 51.4743 505.142 49.2575 502.241 49.9718 C 502.513 57.1329 527.22 80.707 533.906 85.4079 L 534.406 85.7639 C 538.967 88.9479 549.815 88.58 555.827 93.6752 C 557.451 95.0507 569.492 97.3046 572.006 99.6656 L 570.39 100.268 C 558.862 95.8966 548.456 92.6023 537.755 86.4783 C 554.642 111.53 578.91 117.042 605.568 126.117 C 622.608 130.651 639.356 136.477 656.276 141.468 C 691.013 151.713 837.642 192.179 853.211 219.286 C 854.714 221.902 855.428 224.881 854.484 227.83 C 852.371 234.431 843.307 238.647 837.444 241.463 C 801.297 258.825 754.342 254.84 715.823 247.955 C 706.231 246.241 695.825 242.504 686.297 241.682 C 682.477 238.269 680.358 235.286 675.227 236.263 C 674.326 235.661 669.782 231.513 668.69 230.551 C 653.106 214.205 620.879 182.314 608.774 166.05 C 599.59 158.352 585.226 139.424 573.704 129.003 C 570.993 125.18 569.548 122.784 565.772 119.884 C 539.664 94.3189 513.641 68.3023 485.779 44.5628 C 482.3 41.5978 479.881 39.6724 475.219 40.1563 z"/>
<path transform="translate(0,0)" fill="rgba(146, 208, 233, 1)" d="M 475.219 40.1563 L 472.796 37.0252 L 473.33 35.6958 C 477.192 36.1836 480.741 38.3107 484.24 40.0934 C 494.748 43.7201 504.19 47.1976 514.205 52.1901 C 509.231 51.4743 505.142 49.2575 502.241 49.9718 C 502.513 57.1329 527.22 80.707 533.906 85.4079 L 534.406 85.7639 C 538.967 88.9479 549.815 88.58 555.827 93.6752 C 557.451 95.0507 569.492 97.3046 572.006 99.6656 L 570.39 100.268 C 558.862 95.8966 548.456 92.6023 537.755 86.4783 C 554.642 111.53 578.91 117.042 605.568 126.117 L 604.654 126.031 C 598.626 125.416 592.754 122.87 587.606 122.158 C 581.962 121.377 588.707 125.485 578.911 121.64 C 577.453 128.175 612.215 155.352 614.136 162.343 L 612.817 162.449 C 607.632 156.929 585.332 131.984 580.392 130.535 L 580.182 131.856 C 585.878 139.555 606.683 157.679 608.774 166.05 C 599.59 158.352 585.226 139.424 573.704 129.003 C 570.993 125.18 569.548 122.784 565.772 119.884 C 539.664 94.3189 513.641 68.3023 485.779 44.5628 C 482.3 41.5978 479.881 39.6724 475.219 40.1563 z"/>
<path transform="translate(0,0)" fill="rgba(150, 224, 46, 1)" d="M 611.388 0 L 679.796 0 C 690.085 7.33967 698.426 0.77483 705.182 4.89321 C 703.553 7.93812 700.484 12.402 699.937 15.7552 C 698.718 23.241 705.457 28.0619 700.03 35.7638 C 699.102 37.0819 693.655 88.1859 694.298 91.472 C 695.439 97.307 700.095 104.853 699.152 110.647 C 692.179 114.454 687.694 107.619 678.928 108.764 C 667.403 106.335 626.962 91.0553 613.846 86.1404 C 581.414 73.9872 545.976 64.154 514.205 52.1901 C 504.19 47.1976 494.748 43.7201 484.24 40.0934 C 488.089 38.0642 492.099 35.6612 495.793 33.3856 C 525.829 14.881 560.573 4.91956 595.757 3.56121 C 601.162 3.35253 607.241 3.6137 611.388 0 z"/>
<path transform="translate(0,0)" fill="url(#Gradient15)" d="M 570.39 100.268 L 572.006 99.6656 C 569.492 97.3046 557.451 95.0507 555.827 93.6752 C 549.815 88.58 538.967 88.9479 534.406 85.7639 L 533.906 85.4079 C 527.22 80.707 502.513 57.1329 502.241 49.9718 C 505.142 49.2575 509.231 51.4743 514.205 52.1901 C 545.976 64.154 581.414 73.9872 613.846 86.1404 C 626.962 91.0553 667.403 106.335 678.928 108.764 C 740.076 131.942 806.628 149.427 868.434 171.563 C 875.585 174.124 913.292 186.605 918.235 189.622 L 918.469 190.012 C 919.357 191.464 919.423 191.63 920.667 192.738 L 920.253 195.749 C 917.429 197.131 908.981 195.559 902.875 196.238 C 877.328 192.149 848.694 187.615 823.703 181.115 C 751.424 162.313 681.033 137.179 610.653 112.394 C 603.154 109.753 574.529 103.444 570.39 100.268 z"/>
<path transform="translate(0,0)" fill="rgba(16, 155, 214, 1)" d="M 1074.36 258.244 C 1086.42 266.712 1097.52 277.033 1107.74 287.653 C 1104.4 290.372 1104.38 290.542 1100.71 287.588 C 1096.76 288.031 1091.15 292.567 1087.38 294.418 C 1084.76 295.704 1078.89 292.2 1078.28 292.648 C 1069.21 299.309 1062.04 293.785 1051.84 299.929 C 1050.82 300.544 1045.53 300.251 1044.21 301.099 C 1041.66 303.291 1039.75 307.962 1036.5 309.124 C 1027.44 305.154 1026.23 312.432 1019.42 313.423 C 1007.02 315.223 994.45 316.848 982.032 318.607 C 969.165 319.806 965.429 313.579 952.565 320.041 C 949.301 318.219 942.42 313.842 939.104 313.678 C 936.956 315.147 935.869 316.51 933.114 316.056 C 921.956 314.217 894.763 304.592 885.599 306.824 C 880.063 308.171 872.03 302.164 866.466 300.602 C 860.299 298.87 850.114 300.511 844.867 297.483 C 847.55 296.833 850.01 294.276 850.227 294.275 C 878.649 294.087 915.986 298.755 943.368 299.329 C 963.662 299.755 985.532 298.119 1003.99 296.237 C 1015.95 295.017 1041.2 284.06 1052.64 279.942 C 1061.41 276.785 1069.61 276.755 1078.15 272.583 C 1081 271.194 1082.29 270.99 1084.01 268.333 C 1080.24 263.986 1076.09 263.12 1074.36 258.244 z"/>
<path transform="translate(0,0)" fill="rgba(146, 208, 233, 1)" d="M 918.235 189.622 C 926.966 192.658 938.876 197.309 947.603 199.525 C 965.382 204.038 981.657 207.329 999.237 212.945 L 1001.58 217.663 C 975.594 207.298 931.059 201.026 902.875 196.238 C 908.981 195.559 917.429 197.131 920.253 195.749 L 920.667 192.738 C 919.423 191.63 919.357 191.464 918.469 190.012 L 918.235 189.622 z"/>
<path transform="translate(0,0)" fill="url(#Gradient14)" d="M 1041.15 231.893 C 1041.87 228.832 1039.94 229.331 1041.06 225.734 L 1042.79 225.084 C 1044.67 225.707 1045.47 225.783 1047.44 226.054 C 1051.69 223.941 1051.63 221.009 1055.58 217.159 L 1056.25 218.52 C 1055.29 221.643 1054.27 224.749 1053.19 227.837 C 1058.78 224.097 1062.23 217.768 1063.04 217.268 C 1063.91 220.648 1060.78 223.675 1061.72 228.655 C 1067.76 230.852 1066.77 225.264 1070.99 223.303 C 1071.86 225.161 1070.5 229.703 1070.11 232.483 L 1070.19 232.539 L 1070.07 231.523 L 1072.16 231.438 C 1074.24 229.23 1075.4 228.248 1077.71 226.358 C 1079.33 227.66 1077.77 233.723 1078.89 238.352 L 1080.41 238.884 C 1083.19 236.411 1084.45 235.225 1087.65 233.342 C 1089.95 235.15 1087.23 239.839 1089.73 243.873 C 1094.42 242.025 1092 240.187 1096.17 238.289 C 1096.11 240.829 1098.44 241.107 1098.54 247.414 L 1098.55 248.312 C 1103.3 246.516 1104.66 242.067 1106.78 237.437 L 1108 237.267 L 1108.52 238.497 L 1107.23 240.296 C 1109.48 243.214 1106.45 241.621 1107.55 244.98 L 1109.58 244.104 C 1113.14 245.219 1110.37 247.617 1113.66 249.781 C 1117.94 244.086 1118.83 241.845 1121.63 235.242 L 1122.27 235.448 C 1122.49 237.756 1122.74 240.061 1123.04 242.36 L 1124.38 242.902 C 1124.29 240.807 1126.08 236.541 1126.65 234.313 C 1127.77 229.92 1128.47 215.511 1127.09 212.027 C 1125.81 214.074 1124.92 215.882 1123 217.307 C 1121.25 214.682 1121.76 208.119 1121.75 204.626 L 1120.25 204.131 C 1118.64 206.466 1116.63 210.549 1115.31 213.148 L 1114.06 213.484 C 1112.76 209.449 1113.94 202.36 1113.67 197.306 C 1111.19 200.638 1111.27 206.332 1108.65 210.69 C 1108.29 207.39 1108.21 205.034 1108.18 201.711 L 1106.11 202.121 C 1102.85 206.008 1103.93 207.669 1102.02 212.464 C 1101.98 212.399 1099.86 193.819 1099.9 193.426 L 1099.99 192.675 C 1097.77 194.653 1097.39 198.17 1095.86 201.75 L 1095.02 201.461 C 1094.6 196.617 1094.3 188.554 1092.44 184.47 C 1091.97 189.127 1089 194.703 1086.94 199.024 L 1086.13 198.47 L 1085.63 182.869 C 1082.9 186.557 1083.09 189.777 1080.08 192.666 C 1078.99 186.763 1079.36 178.144 1079.42 171.905 C 1076.72 176.693 1074.57 189.474 1069.58 192.135 C 1067.67 189.104 1069.19 177.285 1069.83 173.334 C 1068.45 178.038 1065.99 179.732 1065.14 182.366 C 1063.82 186.495 1064.64 187.356 1062.42 192.394 L 1061.3 192.752 C 1060.07 187.923 1065.87 140.913 1068.48 137.813 L 1071.61 149.349 C 1072.38 138.657 1076.41 137.952 1077.93 129.553 L 1078.74 129.312 C 1080.04 133.993 1079.13 141.125 1080.06 147.005 C 1081.18 146.297 1088.44 121.909 1090.09 118.133 C 1090.36 119.513 1090.65 120.887 1090.98 122.253 C 1091.92 126.131 1091.25 126.081 1093.75 127.612 C 1094.73 116.459 1097.26 108.303 1097.77 95.98 C 1101.06 99.7339 1100.04 110.708 1101.98 117.692 L 1103.95 115.701 C 1107.11 107.151 1104.77 85.3977 1097.94 79.1705 C 1094.67 80.8278 1096.98 83.8917 1094.38 86.7395 C 1092.58 83.4222 1090.98 80.6361 1088.98 77.4394 C 1086.41 78.3396 1088.8 80.6492 1086.72 84.9213 C 1083.29 81.8251 1085.99 74.1205 1080.71 72.0522 C 1078.63 74.1455 1078.07 78.4705 1077.37 81.5555 C 1076.08 77.3174 1075.46 75.4123 1073.51 71.4632 L 1072.36 71.2426 C 1072.29 75.1153 1073 75.5912 1071.01 77.8151 C 1069.48 76.8133 1068 72.5007 1066.65 70.0511 L 1065.62 70.5068 C 1065.4 74.0002 1064.78 78.2649 1064.44 81.8683 C 1061.75 79.113 1063.95 75.1303 1061.82 72.0157 C 1060.76 73.693 1059.72 75.381 1058.7 77.0795 C 1058.78 77.5203 1052.87 59.4141 1053.46 60.2744 L 1051.41 67.4542 C 1049.87 64.9353 1049.44 59.9592 1048.96 56.8337 L 1048.05 56.3102 C 1047.17 58.4872 1046.33 60.6758 1045.52 62.8755 C 1043.95 60.2992 1046.43 53.4211 1044.62 49.5793 C 1041.73 51.742 1041.41 52.2385 1039.37 55.2114 L 1039.88 55.115 C 1044.99 45.0624 1038.71 38.4686 1033.01 30.7433 C 1038.74 25.2465 1039.48 31.0217 1046.99 29.7044 C 1058.57 35.2967 1087.34 51.4871 1096.11 61.2892 C 1103.73 66.5675 1123.72 84.9144 1128.77 92.5937 C 1137.24 100.976 1143.45 110.913 1150.01 120.748 C 1180.62 166.642 1194.83 215.925 1195.14 271.031 L 1195.09 333.016 C 1195.1 339.182 1195.64 359.886 1195.05 365.151 C 1199.99 393.425 1193.28 429.02 1195.22 458.563 C 1196.37 476.159 1194.42 495.339 1196.46 513.195 C 1196.59 515.486 1195.23 520.51 1194.56 522.789 C 1192.06 527.249 1194.55 533.491 1192.24 539.612 C 1192.24 534.605 1192.86 525.774 1190.99 521.623 L 1188.15 520.555 C 1188.01 519.796 1188.08 514.204 1188.09 513.006 L 1188.54 512.9 L 1188.7 510.504 L 1188.22 510.289 C 1187.92 513.746 1185.32 518.753 1182.98 521.37 C 1189.74 499.178 1194.32 463.445 1188.63 440.669 C 1188.11 439.711 1187.46 436.116 1187.18 434.832 C 1187.26 430.419 1185.23 423.152 1184.16 418.624 C 1183.25 416.224 1182.31 413.008 1181.59 410.54 C 1171.5 375.853 1154.14 344.561 1132.18 315.984 C 1124.59 306.098 1115.31 297.453 1107.74 287.653 C 1097.52 277.033 1086.42 266.712 1074.36 258.244 C 1064.03 246.299 1018.12 223.138 1001.58 217.663 L 999.237 212.945 C 1014.57 218.635 1026.6 224.337 1041.15 231.893 z"/>
<path transform="translate(0,0)" fill="url(#Gradient13)" d="M 1177.94 387.792 L 1179.38 387.759 L 1181.48 392.676 L 1182.83 392.426 C 1183.59 385.177 1184.53 365.276 1181.39 359.24 L 1178.14 364.767 L 1177.05 365.017 C 1176.1 362.547 1176.43 359.905 1176.54 357.25 C 1174.96 357.44 1174.99 357.448 1173.52 358.082 C 1169.29 353.198 1166.78 346.412 1165.3 340.298 L 1162.02 340.818 C 1160.61 337.589 1163.17 329.41 1162.52 326.142 L 1160.48 328.13 C 1158.92 325.821 1159.75 320.907 1159.37 317.211 L 1159.51 319.073 L 1158.6 319.69 C 1149.83 309.036 1161.28 293.067 1160.7 283.616 L 1161.97 283.207 C 1163.72 285.663 1163.82 288.927 1164.23 291.987 C 1164.98 287.752 1166.31 278.01 1169.63 275.556 C 1173.1 279.791 1167.65 281.83 1169.45 286.733 C 1172.16 285.174 1174.74 267.486 1178.55 261.789 C 1179.8 263.412 1179.47 262.522 1179.6 264.53 C 1179.93 262.339 1180.41 257.37 1181.5 255.794 L 1182.84 256.903 C 1182.92 260.688 1181.37 267.661 1182.67 269.134 C 1184.44 267.924 1185.95 266.866 1187.65 265.548 C 1194.02 274.931 1190.47 325.799 1191.7 338.398 C 1192.72 348.815 1183.65 355.619 1188.11 362.292 L 1190.56 362.601 C 1191.41 360.162 1191.01 354.986 1190.94 352.145 L 1191.6 352.211 C 1191.6 361.151 1192.07 428.96 1189.09 433.088 L 1188.26 432.336 L 1187.18 434.832 C 1187.26 430.419 1185.23 423.152 1184.16 418.624 L 1185.22 418.325 C 1186.91 412.278 1180.15 394.541 1177.94 387.792 z"/>
<path transform="translate(0,0)" fill="rgba(135, 205, 231, 1)" d="M 999.237 212.945 C 1014.57 218.635 1026.6 224.337 1041.15 231.893 C 1109.73 273.752 1144.08 314.976 1177.94 387.792 C 1180.15 394.541 1186.91 412.278 1185.22 418.325 L 1184.16 418.624 C 1183.25 416.224 1182.31 413.008 1181.59 410.54 C 1171.5 375.853 1154.14 344.561 1132.18 315.984 C 1124.59 306.098 1115.31 297.453 1107.74 287.653 C 1097.52 277.033 1086.42 266.712 1074.36 258.244 C 1064.03 246.299 1018.12 223.138 1001.58 217.663 L 999.237 212.945 z"/>
<path transform="translate(0,0)" fill="rgba(112, 153, 187, 1)" d="M 1188.63 440.669 L 1190.04 439.292 C 1193.54 442.811 1191.76 483.003 1191.95 489.876 C 1192.06 493.557 1189.39 499.155 1190.22 502.704 C 1190.6 502.618 1191.06 502.542 1191.43 502.377 C 1192.07 502.092 1193.82 500.503 1194.04 499.854 C 1195.44 495.648 1194.03 482.258 1194.01 476.763 C 1193.99 465.428 1193.57 368.303 1195.05 365.151 C 1199.99 393.425 1193.28 429.02 1195.22 458.563 C 1196.37 476.159 1194.42 495.339 1196.46 513.195 C 1196.59 515.486 1195.23 520.51 1194.56 522.789 C 1192.06 527.249 1194.55 533.491 1192.24 539.612 C 1192.24 534.605 1192.86 525.774 1190.99 521.623 L 1188.15 520.555 C 1188.01 519.796 1188.08 514.204 1188.09 513.006 L 1188.54 512.9 L 1188.7 510.504 L 1188.22 510.289 C 1187.92 513.746 1185.32 518.753 1182.98 521.37 C 1189.74 499.178 1194.32 463.445 1188.63 440.669 z"/>
<path transform="translate(0,0)" fill="rgba(90, 158, 140, 1)" d="M 1096.11 61.2892 C 1103.73 66.5675 1123.72 84.9144 1128.77 92.5937 C 1122.39 90.9574 1096.41 68.3059 1096.11 61.2892 z"/>
<path transform="translate(0,0)" fill="rgba(90, 158, 140, 1)" d="M 1135.97 207.347 C 1140.83 214.809 1137.5 228.722 1136.03 237.577 C 1131.13 231.169 1134.64 215.238 1135.97 207.347 z"/>
<path transform="translate(0,0)" fill="rgba(90, 158, 140, 1)" d="M 1143.84 205.026 C 1147.9 207.963 1145.93 221.374 1144.74 225.986 L 1144.54 229.253 L 1143.65 230.039 C 1141.36 225.625 1143.2 210.374 1143.84 205.026 z"/>
<path transform="translate(0,0)" fill="rgba(90, 158, 140, 1)" d="M 1114 108.93 C 1113.86 104.634 1113.51 100.071 1114.33 95.8819 L 1116 96 C 1119.6 100.776 1117.47 105.17 1114 108.93 z"/>
<path transform="translate(0,0)" fill="rgba(65, 145, 150, 1)" d="M 1154.05 292.384 C 1157.19 297.084 1154.42 302.827 1152.54 307.453 C 1150.3 303.425 1153.06 297.472 1154.05 292.384 z"/>
<path transform="translate(0,0)" fill="rgba(65, 145, 150, 1)" d="M 1187.28 229.14 L 1187.63 230.56 C 1186.48 233.579 1186.63 232.735 1182.94 234.615 C 1182.66 232.892 1182.73 231.682 1182.76 229.934 C 1184.79 229.286 1185.14 229.284 1187.28 229.14 z"/>
<path transform="translate(0,0)" fill="rgba(90, 158, 140, 1)" d="M 1116 96 C 1117.89 90.1178 1114.08 92.1383 1115.87 89.1285 L 1118.62 91.3595 C 1118.77 93.5715 1118.38 94.9296 1116 96 z"/>
<path transform="translate(0,0)" fill="rgba(112, 153, 187, 1)" d="M 386.402 20.3754 C 391.821 19.4779 417.233 19.5003 421.101 23.4046 C 417.57 24.8688 411.76 24.3823 407.75 24.3263 C 402.326 24.3697 376.364 25.2157 373.098 22.9499 C 376.527 21.0934 382.35 20.8301 386.402 20.3754 z"/>
<path transform="translate(0,0)" fill="rgba(112, 153, 187, 1)" d="M 334.878 29.0449 C 335.944 29.1362 336.304 29.4545 337.299 29.9414 C 335.362 33.6716 315.432 39.3578 310.223 41.1253 L 308.555 41.1394 L 307.756 40.1233 C 311.6 36.136 328.754 31.0483 334.878 29.0449 z"/>
<path transform="translate(0,0)" fill="rgba(112, 153, 187, 1)" d="M 197.436 162.735 C 200.19 165.78 194.445 177.808 192.949 181.471 C 192.457 180.995 191.526 179.583 191.079 178.951 C 190.448 172.911 194.3 167.886 197.436 162.735 z"/>
<path transform="translate(0,0)" fill="rgba(112, 153, 187, 1)" d="M 423.847 23.4722 C 424.471 23.3719 425.097 23.2912 425.725 23.2303 C 432.878 22.5076 437.58 22.2963 443.181 26.7983 C 437.761 27.7289 428.041 27.2489 423.847 23.4722 z"/>
<path transform="translate(0,0)" fill="rgba(112, 153, 187, 1)" d="M 187.373 193.362 L 188.906 194.211 C 190.157 197.211 188.108 206.091 187.448 210.025 C 185.853 209.578 186.339 209.691 185.11 208.042 C 184.59 203.241 186.216 198.118 187.373 193.362 z"/>
<path transform="translate(0,0)" fill="rgba(112, 153, 187, 1)" d="M 360.193 23.1809 C 362.85 23.0132 364.072 22.7382 366.509 23.9616 C 364.107 26.2968 363.554 25.7961 359.779 26.7177 C 356.296 27.334 354.716 28.0731 352.03 26.3327 C 353.829 24.0209 357.211 23.7887 360.193 23.1809 z"/>
<path transform="translate(0,0)" fill="rgba(112, 153, 187, 1)" fill-opacity="0.976471" d="M 223.179 109.492 C 224.157 110.127 224.304 110.885 224.747 111.982 C 223.871 115.879 220.395 119.854 217.926 123.166 L 216.772 121.755 C 217.405 118.712 221.436 112.462 223.179 109.492 z"/>
<path transform="translate(0,0)" fill="rgba(112, 153, 187, 1)" d="M 201.371 149.524 L 202.914 151.521 C 202.719 155.721 200.769 159.295 199.035 163.132 C 198.112 162.114 198.015 161.687 197.387 160.47 C 198.34 156.064 199.566 153.578 201.371 149.524 z"/>
<path transform="translate(0,0)" fill="rgba(112, 153, 187, 1)" d="M 346.05 25.6763 C 348.943 26.0694 348.019 25.5874 350.011 27.2165 C 348.32 29.372 345.134 29.8288 342.297 30.6519 C 341.033 30.823 340.707 30.6004 339.431 30.3052 C 340.649 28.0345 343.593 26.9608 346.05 25.6763 z"/>
<path transform="translate(0,0)" fill="rgba(112, 153, 187, 1)" fill-opacity="0.988235" d="M 443.77 26.2323 C 449.785 26.0182 451.057 25.6045 454.387 30.7069 C 450.261 30.2063 446.405 29.6632 443.77 26.2323 z"/>
<path transform="translate(0,0)" fill="url(#Gradient12)" d="M 604.286 218.666 C 618.274 217.62 639.753 222.503 653.498 226.165 C 656.796 227.044 666.55 230.338 668.69 230.551 C 669.782 231.513 674.326 235.661 675.227 236.263 C 679.83 240.763 683.959 244.665 688.018 249.676 C 692.572 254.425 697.599 259.45 701.675 264.558 C 707.457 269.567 731.987 294.069 735.439 300.063 C 725.772 304.859 724.967 315.298 730.271 323.778 C 731.814 323.984 733.364 324.131 734.917 324.219 C 735.619 325.34 735.913 325.595 736.276 326.867 L 737.872 332.948 C 740.249 333.183 740.433 333.265 742.688 332.624 C 746.651 326.449 745.78 318.72 745.842 311.283 C 754.021 320.626 764.903 332.388 772.362 341.976 L 769.56 342.825 C 768.509 345.978 780.501 384.772 782.195 390.439 C 786.081 403.443 787.519 412.268 788.319 425.964 C 782.706 427.777 780.879 429.146 777.743 434.408 C 774.855 439.253 770.468 458.45 772.944 462.913 L 775.259 463.415 C 772.75 471.497 774.663 473.94 773.665 479.029 C 771.425 470.534 761.171 467.28 753.192 466.025 C 753.312 473.421 753.572 475.481 751.666 482.678 C 746.342 522.763 722.797 563.747 690.555 588.138 C 657.736 612.965 629.962 622.58 589.956 627.644 C 586.13 628.055 580.709 628.054 576.746 628.173 C 573.394 633.293 567.872 640.51 566.991 646.386 C 560.222 651.451 507.979 633.083 499.742 629.398 C 477.533 619.463 461.887 606.584 443.048 591.907 C 442.189 595.229 442.721 595.145 440.598 597.359 C 426.616 597.272 390.185 537.649 395.62 527.131 L 397.187 527.343 C 400.047 529.809 402.937 537.605 405.251 541.744 L 408.587 540.395 C 404.694 530.056 391.415 490.489 399.144 482.278 C 402.44 480.774 407.544 482.415 411.982 482.722 L 413.219 481.188 C 411.547 460.845 413.632 440.368 419.369 420.779 C 421.647 395.337 453.637 344.265 474.594 328.538 C 505.551 295.035 559.783 278.052 604.494 279.64 C 610.293 279.846 616.956 279.432 622.484 281.146 L 625.139 281.49 C 634.179 279.364 642.724 279.86 651.923 280.014 C 648.346 267.829 616.744 260.082 605.7 257.471 L 605.182 255.752 C 616.157 247.235 607.193 245.233 613.854 239.545 C 615.917 239.684 617.978 239.843 620.038 240.022 C 622.62 237.874 621.868 238.172 622.711 234.105 C 616.14 234.042 598.07 232.445 592.609 229.094 C 590.317 223.536 599.935 220.422 604.286 218.666 z"/>
<path transform="translate(0,0)" fill="rgba(31, 190, 211, 1)" d="M 604.286 218.666 C 618.274 217.62 639.753 222.503 653.498 226.165 C 656.796 227.044 666.55 230.338 668.69 230.551 C 669.782 231.513 674.326 235.661 675.227 236.263 C 679.83 240.763 683.959 244.665 688.018 249.676 C 692.572 254.425 697.599 259.45 701.675 264.558 C 707.457 269.567 731.987 294.069 735.439 300.063 C 725.772 304.859 724.967 315.298 730.271 323.778 C 731.814 323.984 733.364 324.131 734.917 324.219 C 735.619 325.34 735.913 325.595 736.276 326.867 L 734.945 328.269 C 733.027 328.612 732.442 328.389 730.633 327.699 C 729.091 329.325 728.805 329.728 727.711 331.709 L 727.447 332.196 C 719.323 333.575 709.833 331.18 699.312 332.748 C 701.399 333.585 702.273 334.138 704.187 335.329 L 704.256 336.888 L 702.344 338.387 C 670.425 338.098 647.226 305.823 629.938 282.507 C 635.72 282.523 646.695 281.865 651.923 280.014 C 648.346 267.829 616.744 260.082 605.7 257.471 L 605.182 255.752 C 616.157 247.235 607.193 245.233 613.854 239.545 C 615.917 239.684 617.978 239.843 620.038 240.022 C 622.62 237.874 621.868 238.172 622.711 234.105 C 616.14 234.042 598.07 232.445 592.609 229.094 C 590.317 223.536 599.935 220.422 604.286 218.666 z"/>
<path transform="translate(0,0)" fill="rgba(34, 162, 235, 1)" d="M 604.286 218.666 C 618.274 217.62 639.753 222.503 653.498 226.165 C 656.796 227.044 666.55 230.338 668.69 230.551 C 669.782 231.513 674.326 235.661 675.227 236.263 C 679.83 240.763 683.959 244.665 688.018 249.676 C 678.889 249.783 673.678 244.25 664.941 243.33 C 651.42 240.996 638.11 234.947 622.711 234.105 C 616.14 234.042 598.07 232.445 592.609 229.094 C 590.317 223.536 599.935 220.422 604.286 218.666 z"/>
<path transform="translate(0,0)" fill="rgba(112, 153, 187, 1)" d="M 622.711 234.105 C 638.11 234.947 651.42 240.996 664.941 243.33 C 666.204 245.162 670.733 246.24 673.104 247.025 C 671.668 247.692 641.885 240.712 632.68 241.843 C 627.684 241.496 619.723 241.711 614.831 242.484 C 609.975 246.767 615.195 248.249 611.485 253.44 C 608.859 254.764 608.195 255.145 605.182 255.752 C 616.157 247.235 607.193 245.233 613.854 239.545 C 615.917 239.684 617.978 239.843 620.038 240.022 C 622.62 237.874 621.868 238.172 622.711 234.105 z"/>
<path transform="translate(0,0)" fill="rgba(16, 155, 214, 1)" d="M 632.68 241.843 C 641.885 240.712 671.668 247.692 673.104 247.025 C 670.733 246.24 666.204 245.162 664.941 243.33 C 673.678 244.25 678.889 249.783 688.018 249.676 C 692.572 254.425 697.599 259.45 701.675 264.558 C 698.62 264.131 695.078 259.91 692.454 257.525 C 685.619 259.882 683.233 256.686 676.224 253.158 C 662.835 246.418 647.123 244.906 632.68 241.843 z"/>
<path transform="translate(0,0)" fill="url(#Gradient11)" d="M 625.139 281.49 C 634.179 279.364 642.724 279.86 651.923 280.014 C 646.695 281.865 635.72 282.523 629.938 282.507 C 647.226 305.823 670.425 338.098 702.344 338.387 L 704.256 336.888 L 704.187 335.329 C 702.273 334.138 701.399 333.585 699.312 332.748 C 709.833 331.18 719.323 333.575 727.447 332.196 L 727.711 331.709 C 728.805 329.728 729.091 329.325 730.633 327.699 C 732.442 328.389 733.027 328.612 734.945 328.269 L 736.276 326.867 L 737.872 332.948 C 736.121 348.571 734.943 356.639 724.82 368.87 C 717.226 374.745 709.443 379.22 700.206 381.952 C 683.257 386.975 665.005 385.021 649.504 376.523 C 634.02 368.1 622.529 353.856 617.571 336.941 C 612.133 317.985 615.713 298.555 625.139 281.49 z"/>
<path transform="translate(0,0)" fill="url(#Gradient10)" d="M 413.219 481.188 L 415.575 482.517 C 425.861 554.69 476.885 609.114 548.055 622.824 C 554.846 624.132 587.994 626.052 589.956 627.644 C 586.13 628.055 580.709 628.054 576.746 628.173 C 573.394 633.293 567.872 640.51 566.991 646.386 C 560.222 651.451 507.979 633.083 499.742 629.398 C 477.533 619.463 461.887 606.584 443.048 591.907 C 442.189 595.229 442.721 595.145 440.598 597.359 C 426.616 597.272 390.185 537.649 395.62 527.131 L 397.187 527.343 C 400.047 529.809 402.937 537.605 405.251 541.744 L 408.587 540.395 C 404.694 530.056 391.415 490.489 399.144 482.278 C 402.44 480.774 407.544 482.415 411.982 482.722 L 413.219 481.188 z"/>
<path transform="translate(0,0)" fill="rgba(12, 49, 105, 1)" d="M 443.048 591.907 C 442.189 595.229 442.721 595.145 440.598 597.359 C 426.616 597.272 390.185 537.649 395.62 527.131 L 397.187 527.343 C 400.047 529.809 402.937 537.605 405.251 541.744 C 407.504 547.494 422.113 573.032 426.837 574.952 L 427.683 578.61 L 429.494 579.575 C 430.645 579.062 431.804 578.566 432.971 578.089 C 434.506 582.963 430.175 583.592 435.398 587.744 C 438.025 589.833 439.198 589.828 442.587 589.577 L 443.429 591.055 L 443.048 591.907 z"/>
<path transform="translate(0,0)" fill="rgba(11, 53, 118, 1)" d="M 408.587 540.395 C 410.723 544.236 427.862 572.28 427.896 574.086 L 426.837 574.952 C 422.113 573.032 407.504 547.494 405.251 541.744 L 408.587 540.395 z"/>
<path transform="translate(0,0)" fill="rgba(12, 49, 105, 1)" d="M 745.842 311.283 C 754.021 320.626 764.903 332.388 772.362 341.976 L 769.56 342.825 C 768.509 345.978 780.501 384.772 782.195 390.439 C 786.081 403.443 787.519 412.268 788.319 425.964 C 782.706 427.777 780.879 429.146 777.743 434.408 C 774.855 439.253 770.468 458.45 772.944 462.913 L 775.259 463.415 C 772.75 471.497 774.663 473.94 773.665 479.029 C 771.425 470.534 761.171 467.28 753.192 466.025 C 753.312 473.421 753.572 475.481 751.666 482.678 L 750.539 482.375 C 754.999 434.327 747.662 409.536 724.82 368.87 C 734.943 356.639 736.121 348.571 737.872 332.948 C 740.249 333.183 740.433 333.265 742.688 332.624 C 746.651 326.449 745.78 318.72 745.842 311.283 z"/>
<path transform="translate(0,0)" fill="rgba(12, 49, 105, 1)" d="M 474.594 328.538 C 505.551 295.035 559.783 278.052 604.494 279.64 C 610.293 279.846 616.956 279.432 622.484 281.146 C 613.016 283.554 596.724 281.309 587.014 282.061 C 547.371 285.131 509.317 299.221 479.604 325.992 C 477.672 327.733 476.767 329.416 474.594 328.538 z"/>
<path transform="translate(0,0)" fill="rgba(12, 49, 105, 1)" d="M 419.369 420.779 C 420.172 425.885 417.882 436.339 417.058 441.878 C 414.95 456.034 414.816 468.268 415.575 482.517 L 413.219 481.188 C 411.547 460.845 413.632 440.368 419.369 420.779 z"/>
<path transform="translate(0,0)" fill="rgba(17, 55, 71, 1)" d="M 475.219 40.1563 C 479.881 39.6724 482.3 41.5978 485.779 44.5628 C 513.641 68.3023 539.664 94.3189 565.772 119.884 C 569.548 122.784 570.993 125.18 573.704 129.003 C 585.226 139.424 599.59 158.352 608.774 166.05 C 620.879 182.314 653.106 214.205 668.69 230.551 C 666.55 230.338 656.796 227.044 653.498 226.165 C 639.753 222.503 618.274 217.62 604.286 218.666 L 603.124 216.612 C 595.877 214.622 586.927 217.635 582.795 214.904 C 582.164 213.468 581.905 208.818 580.935 208.437 C 572.601 205.169 539.081 215.656 533.964 210.356 L 534.428 209.072 C 541.825 205.892 565.922 203.597 569.864 200.018 L 568.138 199.438 L 568.233 200.987 L 567.766 201.146 L 566.601 199.32 C 527.988 199.298 480.424 216.649 450.255 240.131 C 442.196 246.404 423.065 260.133 417.947 268.321 L 416.615 273.016 C 426.706 271.107 425.88 262.29 437.098 261.14 C 438.5 260.486 449.501 252.279 451.561 250.778 C 463.4 242.149 474.978 234.84 488.622 229.192 C 493.372 227.225 509.99 221.013 514.749 222.97 C 513.417 227.511 500.841 232.143 494.933 237.311 C 489.869 242.195 466.845 253.187 458.702 259.548 C 429.916 282.039 409.052 308.574 388.687 338.032 L 385.665 343.974 L 386.395 345.623 C 387.499 347.625 388.62 348.737 387.425 351.013 C 384.341 356.884 374.362 383.687 371.106 387.024 C 370.162 387.102 367.212 387.144 366.86 387.688 C 361.208 396.838 361.509 409.228 362.494 419.605 C 362.604 420.773 363.123 426.556 363.145 426.548 C 352.25 430.869 361.229 441.579 360.531 451.442 C 359.975 459.313 355.379 472.938 356.04 481.763 C 356.183 490.339 361.092 499.572 361.548 506.31 C 362.183 515.682 355.551 517.099 365.138 526.963 C 362.233 526.143 360.447 527.291 357.166 527.414 C 353.611 522.775 351.472 519.619 346.802 515.997 C 342.021 511.94 337.461 506.118 333.373 501.234 C 307.662 474.343 275.173 438.456 251.681 409.633 L 245.112 401.603 C 210.765 358.223 197.705 342.356 188.104 286.04 L 186.865 273.349 C 187.606 272.926 188.813 272.269 189.478 271.746 C 267.38 210.539 342.375 144.454 420.468 83.4884 C 430.531 75.5515 440.739 67.801 451.088 60.2409 C 456.52 56.3519 474.214 45.6818 475.219 40.1563 z M 291.641 269.701 L 293.168 270.455 L 298.307 269.936 C 302.419 263.586 305.656 260.863 302.439 253.674 C 298.656 257.479 292.953 264.475 291.641 269.701 z M 296.88 278.93 L 294.306 277.466 C 290.85 280.299 288.778 284.451 288.17 288.846 L 289.535 291.199 C 292.375 288.429 295.595 282.69 296.88 278.93 z M 416.615 273.016 L 417.947 268.321 L 415.466 267.268 C 403.544 272.18 389.4 294.434 381.627 300.982 C 375.807 309.478 369.34 316.838 368.389 327.354 C 358.015 343.065 355.336 350.685 348.226 367.217 C 334.999 404.405 329.777 433.723 330.705 473.292 C 330.947 483.599 333.069 492.021 333.373 501.234 C 337.461 506.118 342.021 511.94 346.802 515.997 C 351.472 519.619 353.611 522.775 357.166 527.414 C 360.447 527.291 362.233 526.143 365.138 526.963 C 355.551 517.099 362.183 515.682 361.548 506.31 C 361.092 499.572 356.183 490.339 356.04 481.763 C 355.379 472.938 359.975 459.313 360.531 451.442 C 361.229 441.579 352.25 430.869 363.145 426.548 C 363.123 426.556 362.604 420.773 362.494 419.605 C 361.509 409.228 361.208 396.838 366.86 387.688 C 367.212 387.144 370.162 387.102 371.106 387.024 C 374.362 383.687 384.341 356.884 387.425 351.013 C 388.62 348.737 387.499 347.625 386.395 345.623 L 385.665 343.974 L 388.687 338.032 C 409.052 308.574 429.916 282.039 458.702 259.548 C 466.845 253.187 489.869 242.195 494.933 237.311 C 500.841 232.143 513.417 227.511 514.749 222.97 C 509.99 221.013 493.372 227.225 488.622 229.192 C 474.978 234.84 463.4 242.149 451.561 250.778 C 449.501 252.279 438.5 260.486 437.098 261.14 C 425.88 262.29 426.706 271.107 416.615 273.016 z M 643.271 213.563 C 641.644 209.179 635.469 204.155 631.16 205 L 631.366 206.743 C 636.189 210.008 637.672 214.703 643.271 213.563 z"/>
<path transform="translate(0,0)" fill="rgba(29, 89, 42, 1)" d="M 314.408 253.844 L 316.409 254.376 C 324.183 242.964 342.161 221.198 352.252 211.607 C 364.976 221.189 377.196 225.478 391.897 230.824 C 401.529 234.327 432.403 234.411 431.282 248.587 C 432.457 248.687 433.125 248.768 434.313 248.711 C 429.787 257.527 412.426 266.19 405.063 272.93 C 400.192 277.389 381.378 295.264 381.627 300.982 C 389.4 294.434 403.544 272.18 415.466 267.268 L 417.947 268.321 L 416.615 273.016 C 426.706 271.107 425.88 262.29 437.098 261.14 C 438.5 260.486 449.501 252.279 451.561 250.778 C 463.4 242.149 474.978 234.84 488.622 229.192 C 493.372 227.225 509.99 221.013 514.749 222.97 C 513.417 227.511 500.841 232.143 494.933 237.311 C 489.869 242.195 466.845 253.187 458.702 259.548 C 429.916 282.039 409.052 308.574 388.687 338.032 L 385.665 343.974 L 386.395 345.623 C 387.499 347.625 388.62 348.737 387.425 351.013 C 384.341 356.884 374.362 383.687 371.106 387.024 C 370.162 387.102 367.212 387.144 366.86 387.688 C 361.208 396.838 361.509 409.228 362.494 419.605 C 362.604 420.773 363.123 426.556 363.145 426.548 C 352.25 430.869 361.229 441.579 360.531 451.442 C 359.975 459.313 355.379 472.938 356.04 481.763 C 356.183 490.339 361.092 499.572 361.548 506.31 C 362.183 515.682 355.551 517.099 365.138 526.963 C 362.233 526.143 360.447 527.291 357.166 527.414 C 353.611 522.775 351.472 519.619 346.802 515.997 C 342.021 511.94 337.461 506.118 333.373 501.234 C 307.662 474.343 275.173 438.456 251.681 409.633 C 253.003 406.834 254.71 390.73 255.359 386.706 C 259.684 359.866 268.748 335.105 279.907 310.508 C 281.961 305.376 289.538 295.371 289.535 291.199 C 292.375 288.429 295.595 282.69 296.88 278.93 C 300.777 275.032 307.891 260.535 314.408 253.844 z M 416.615 273.016 L 417.947 268.321 L 415.466 267.268 C 403.544 272.18 389.4 294.434 381.627 300.982 C 375.807 309.478 369.34 316.838 368.389 327.354 C 358.015 343.065 355.336 350.685 348.226 367.217 C 334.999 404.405 329.777 433.723 330.705 473.292 C 330.947 483.599 333.069 492.021 333.373 501.234 C 337.461 506.118 342.021 511.94 346.802 515.997 C 351.472 519.619 353.611 522.775 357.166 527.414 C 360.447 527.291 362.233 526.143 365.138 526.963 C 355.551 517.099 362.183 515.682 361.548 506.31 C 361.092 499.572 356.183 490.339 356.04 481.763 C 355.379 472.938 359.975 459.313 360.531 451.442 C 361.229 441.579 352.25 430.869 363.145 426.548 C 363.123 426.556 362.604 420.773 362.494 419.605 C 361.509 409.228 361.208 396.838 366.86 387.688 C 367.212 387.144 370.162 387.102 371.106 387.024 C 374.362 383.687 384.341 356.884 387.425 351.013 C 388.62 348.737 387.499 347.625 386.395 345.623 L 385.665 343.974 L 388.687 338.032 C 409.052 308.574 429.916 282.039 458.702 259.548 C 466.845 253.187 489.869 242.195 494.933 237.311 C 500.841 232.143 513.417 227.511 514.749 222.97 C 509.99 221.013 493.372 227.225 488.622 229.192 C 474.978 234.84 463.4 242.149 451.561 250.778 C 449.501 252.279 438.5 260.486 437.098 261.14 C 425.88 262.29 426.706 271.107 416.615 273.016 z"/>
<path transform="translate(0,0)" fill="url(#Gradient9)" d="M 437.098 261.14 C 438.5 260.486 449.501 252.279 451.561 250.778 C 463.4 242.149 474.978 234.84 488.622 229.192 C 493.372 227.225 509.99 221.013 514.749 222.97 C 513.417 227.511 500.841 232.143 494.933 237.311 C 489.869 242.195 466.845 253.187 458.702 259.548 C 429.916 282.039 409.052 308.574 388.687 338.032 L 385.665 343.974 L 386.395 345.623 C 387.499 347.625 388.62 348.737 387.425 351.013 C 384.341 356.884 374.362 383.687 371.106 387.024 C 370.162 387.102 367.212 387.144 366.86 387.688 C 361.208 396.838 361.509 409.228 362.494 419.605 C 362.604 420.773 363.123 426.556 363.145 426.548 C 352.25 430.869 361.229 441.579 360.531 451.442 C 359.975 459.313 355.379 472.938 356.04 481.763 C 356.183 490.339 361.092 499.572 361.548 506.31 C 362.183 515.682 355.551 517.099 365.138 526.963 C 362.233 526.143 360.447 527.291 357.166 527.414 C 353.611 522.775 351.472 519.619 346.802 515.997 C 342.021 511.94 337.461 506.118 333.373 501.234 C 333.069 492.021 330.947 483.599 330.705 473.292 C 329.777 433.723 334.999 404.405 348.226 367.217 C 355.336 350.685 358.015 343.065 368.389 327.354 C 369.34 316.838 375.807 309.478 381.627 300.982 C 389.4 294.434 403.544 272.18 415.466 267.268 L 417.947 268.321 L 416.615 273.016 C 426.706 271.107 425.88 262.29 437.098 261.14 z M 350.031 515.643 L 351.243 514.623 C 350.965 507.567 349.318 493.938 347.064 487.061 C 346.634 485.75 344.134 485.528 342.347 485.045 C 342.032 492.413 343.505 508.288 347.425 514.566 L 350.031 515.643 z M 340.877 462.887 C 340.796 467.153 340.27 473.798 341.66 477.587 C 343.059 478.393 343.322 478.671 344.974 478.694 L 346.525 477.588 C 347.224 474.05 347.545 467.072 345.832 463.848 L 340.877 462.887 z"/>
<path transform="translate(0,0)" fill="url(#Gradient8)" d="M 368.389 327.354 C 373.277 322.752 375.541 314.754 381.868 312.086 C 379.641 315.725 377.609 319.089 375.56 322.852 C 373.633 329.638 369.739 332.685 369.774 336.804 C 371.345 339.018 370.569 338.278 373.775 339.34 C 353.748 380.591 340.344 415.793 340.877 462.887 C 340.796 467.153 340.27 473.798 341.66 477.587 C 343.059 478.393 343.322 478.671 344.974 478.694 L 342.167 479.57 C 341.251 481.587 341.304 482.889 342.347 485.045 C 342.032 492.413 343.505 508.288 347.425 514.566 L 350.031 515.643 L 346.802 515.997 C 342.021 511.94 337.461 506.118 333.373 501.234 C 333.069 492.021 330.947 483.599 330.705 473.292 C 329.777 433.723 334.999 404.405 348.226 367.217 C 355.336 350.685 358.015 343.065 368.389 327.354 z"/>
<path transform="translate(0,0)" fill="rgba(12, 49, 105, 1)" d="M 368.389 327.354 C 373.277 322.752 375.541 314.754 381.868 312.086 C 379.641 315.725 377.609 319.089 375.56 322.852 C 364.437 336.6 358.769 354.756 350.436 370.226 C 349.579 369.213 348.792 368.418 348.226 367.217 C 355.336 350.685 358.015 343.065 368.389 327.354 z"/>
<path transform="translate(0,0)" fill="url(#Gradient7)" d="M 383.852 336.263 C 384.946 339.308 384.916 337.984 383.75 341.281 C 385.32 340.083 386.873 338.734 388.687 338.032 L 385.665 343.974 L 386.395 345.623 C 387.499 347.625 388.62 348.737 387.425 351.013 C 384.341 356.884 374.362 383.687 371.106 387.024 C 370.162 387.102 367.212 387.144 366.86 387.688 C 361.208 396.838 361.509 409.228 362.494 419.605 C 362.604 420.773 363.123 426.556 363.145 426.548 C 352.25 430.869 361.229 441.579 360.531 451.442 C 359.975 459.313 355.379 472.938 356.04 481.763 C 356.183 490.339 361.092 499.572 361.548 506.31 C 362.183 515.682 355.551 517.099 365.138 526.963 C 362.233 526.143 360.447 527.291 357.166 527.414 C 353.611 522.775 351.472 519.619 346.802 515.997 L 350.031 515.643 L 351.243 514.623 C 350.965 507.567 349.318 493.938 347.064 487.061 C 346.634 485.75 344.134 485.528 342.347 485.045 C 341.304 482.889 341.251 481.587 342.167 479.57 L 344.974 478.694 L 346.525 477.588 C 347.224 474.05 347.545 467.072 345.832 463.848 C 345.351 419.072 362.733 375.033 383.852 336.263 z"/>
<path transform="translate(0,0)" fill="rgba(60, 131, 157, 1)" d="M 371.106 387.024 L 369.937 386.153 C 367.078 380.011 380.561 349.431 386.395 345.623 C 387.499 347.625 388.62 348.737 387.425 351.013 C 384.341 356.884 374.362 383.687 371.106 387.024 z"/>
<path transform="translate(0,0)" fill="rgba(12, 49, 105, 1)" d="M 383.852 336.263 C 384.009 335.871 384.165 335.478 384.321 335.086 C 410.343 289.452 446.653 255.977 494.933 237.311 C 489.869 242.195 466.845 253.187 458.702 259.548 C 429.916 282.039 409.052 308.574 388.687 338.032 C 386.873 338.734 385.32 340.083 383.75 341.281 C 384.916 337.984 384.946 339.308 383.852 336.263 z"/>
<path transform="translate(0,0)" fill="rgba(12, 49, 105, 1)" d="M 381.627 300.982 C 389.4 294.434 403.544 272.18 415.466 267.268 L 417.947 268.321 L 416.615 273.016 C 409.472 277.116 409.122 279.593 407.737 286.972 C 403.458 287.678 403.305 285.511 400.77 289.425 C 397.993 293.713 399.743 296.356 397.463 302.016 C 393.496 302.415 392.51 300.623 390.573 301.861 C 387.647 303.731 384.591 310.652 381.868 312.086 C 375.541 314.754 373.277 322.752 368.389 327.354 C 369.34 316.838 375.807 309.478 381.627 300.982 z"/>
<path transform="translate(0,0)" fill="url(#Gradient6)" d="M 381.868 312.086 C 384.591 310.652 387.647 303.731 390.573 301.861 C 392.51 300.623 393.496 302.415 397.463 302.016 L 398.026 303.155 C 389.822 313.449 380.186 327.733 373.775 339.34 C 370.569 338.278 371.345 339.018 369.774 336.804 C 369.739 332.685 373.633 329.638 375.56 322.852 C 377.609 319.089 379.641 315.725 381.868 312.086 z"/>
<path transform="translate(0,0)" fill="rgba(11, 53, 118, 1)" d="M 416.615 273.016 C 426.706 271.107 425.88 262.29 437.098 261.14 C 432.189 265.761 397.777 303.286 398.026 303.155 L 397.463 302.016 C 399.743 296.356 397.993 293.713 400.77 289.425 C 403.305 285.511 403.458 287.678 407.737 286.972 C 409.122 279.593 409.472 277.116 416.615 273.016 z"/>
<path transform="translate(0,0)" fill="url(#Gradient5)" d="M 314.408 253.844 C 322.157 240.37 340.561 220.654 351.71 209.37 C 383.956 176.736 430.437 150.045 474.344 137.21 C 497.479 130.448 552.092 120.569 573.704 129.003 C 585.226 139.424 599.59 158.352 608.774 166.05 C 620.879 182.314 653.106 214.205 668.69 230.551 C 666.55 230.338 656.796 227.044 653.498 226.165 C 639.753 222.503 618.274 217.62 604.286 218.666 L 603.124 216.612 C 595.877 214.622 586.927 217.635 582.795 214.904 C 582.164 213.468 581.905 208.818 580.935 208.437 C 572.601 205.169 539.081 215.656 533.964 210.356 L 534.428 209.072 C 541.825 205.892 565.922 203.597 569.864 200.018 L 568.138 199.438 L 568.233 200.987 L 567.766 201.146 L 566.601 199.32 C 527.988 199.298 480.424 216.649 450.255 240.131 C 442.196 246.404 423.065 260.133 417.947 268.321 L 415.466 267.268 C 403.544 272.18 389.4 294.434 381.627 300.982 C 381.378 295.264 400.192 277.389 405.063 272.93 C 412.426 266.19 429.787 257.527 434.313 248.711 C 433.125 248.768 432.457 248.687 431.282 248.587 C 432.403 234.411 401.529 234.327 391.897 230.824 C 377.196 225.478 364.976 221.189 352.252 211.607 C 342.161 221.198 324.183 242.964 316.409 254.376 L 314.408 253.844 z M 643.271 213.563 C 641.644 209.179 635.469 204.155 631.16 205 L 631.366 206.743 C 636.189 210.008 637.672 214.703 643.271 213.563 z"/>
<path transform="translate(0,0)" fill="rgba(0, 0, 0, 1)" fill-opacity="0.0156863" d="M 631.16 205 C 635.469 204.155 641.644 209.179 643.271 213.563 C 637.672 214.703 636.189 210.008 631.366 206.743 L 631.16 205 z"/>
<path transform="translate(0,0)" fill="rgba(34, 162, 235, 1)" d="M 302.439 253.674 C 303.93 249.907 307.843 245.746 310.356 242.496 C 331.364 215.329 357.847 189.673 385.729 169.547 C 434.596 134.273 505.347 110.146 565.772 119.884 C 569.548 122.784 570.993 125.18 573.704 129.003 C 552.092 120.569 497.479 130.448 474.344 137.21 C 430.437 150.045 383.956 176.736 351.71 209.37 C 340.561 220.654 322.157 240.37 314.408 253.844 C 307.891 260.535 300.777 275.032 296.88 278.93 L 294.306 277.466 C 294.606 275.352 297.069 271.908 298.307 269.936 C 302.419 263.586 305.656 260.863 302.439 253.674 z"/>
<path transform="translate(0,0)" fill="rgba(12, 49, 105, 1)" d="M 245.112 401.603 C 251.345 393.543 247.43 381.822 249.612 373.222 C 252.375 362.327 254.881 351.182 258.313 340.493 C 260.803 332.74 264.775 324.003 267.198 316.576 C 269.354 309.967 265.431 309.722 271.367 301.583 L 272.836 305.162 C 271.72 307.926 270.157 310.575 270.875 313.246 C 273.217 311.812 274.876 310.879 276.938 308.992 L 279.907 310.508 C 268.748 335.105 259.684 359.866 255.359 386.706 C 254.71 390.73 253.003 406.834 251.681 409.633 L 245.112 401.603 z"/>
<path transform="translate(0,0)" fill="rgba(12, 49, 105, 1)" d="M 271.367 301.583 C 278.348 290.253 279.941 282.407 289.822 269.866 L 291.641 269.701 L 293.168 270.455 L 298.307 269.936 C 297.069 271.908 294.606 275.352 294.306 277.466 C 290.85 280.299 288.778 284.451 288.17 288.846 L 289.535 291.199 C 289.538 295.371 281.961 305.376 279.907 310.508 L 276.938 308.992 C 274.876 310.879 273.217 311.812 270.875 313.246 C 270.157 310.575 271.72 307.926 272.836 305.162 L 271.367 301.583 z"/>
<path transform="translate(0,0)" fill="rgba(60, 131, 157, 1)" d="M 271.367 301.583 C 278.348 290.253 279.941 282.407 289.822 269.866 L 291.641 269.701 L 293.168 270.455 C 293.349 272.551 275.222 301.127 272.836 305.162 L 271.367 301.583 z"/>
<path transform="translate(0,0)" fill="rgba(60, 131, 157, 1)" d="M 1152.95 591.902 L 1155.78 592.146 C 1168.03 596.194 1184.43 601.132 1197.28 601.363 C 1195.54 603.953 1196.28 605.362 1196.34 608.238 C 1197.05 639.198 1196.05 675.539 1190.54 705.971 C 1179.85 764.239 1150.03 817.275 1105.79 856.678 C 1086.42 874.231 1060.02 892.868 1035.74 902.711 C 1029.01 905.216 1008.67 913.08 1002.26 914.092 C 997.296 915.822 993.671 917.046 988.512 918.3 C 980.851 919.573 961.748 921.291 956.796 925 L 797.735 925 L 798.02 923.192 C 801.24 921.134 854.752 923.931 866.229 922.613 C 869.967 920.416 885.41 924.713 887.653 917.625 C 883.765 914.728 879.46 917.455 875.317 914.787 C 874.42 908.109 870.247 907.619 876.39 903.658 C 877.816 899.486 875.2 889.955 876.148 886.02 C 877.338 881.084 881.642 882.316 877.038 875.976 C 877.332 865.675 885.803 848.495 884.718 836.996 C 884.484 834.518 882.26 834.195 880.715 832.022 C 886.384 825.343 885.623 820.471 887.25 810.977 L 885.104 808.418 C 883.681 801.208 893.197 791.01 886.441 784.147 C 882.792 780.439 889.959 773.436 890.805 769.799 C 891.682 766.03 889.269 762.304 887.252 758.989 L 887.962 756.358 C 891.953 753.688 897.389 752.667 902.219 750.339 C 911.678 745.78 920.942 740.96 930.482 736.594 C 940.839 731.856 952.674 727.834 962.868 723.024 C 974.279 717.641 985.374 709.269 997.428 704.519 C 1004.17 701.861 1012.86 699.632 1020.06 698.105 C 1022.74 697.537 1022.98 698.431 1025.21 700.196 C 1029.13 700.1 1037.93 693.626 1041.76 691.451 C 1086.29 666.176 1117.39 627.077 1152.95 591.902 z M 1109.28 847.969 C 1185.6 767.423 1193.06 708.53 1192 602.577 C 1177.69 601.885 1168.57 598.597 1155.23 594.073 C 1153.94 596.601 1154.48 595.8 1153.92 597.69 C 1152.86 601.274 1148.11 604.868 1146.61 608.977 C 1143.19 618.373 1142.26 628.341 1139.64 637.963 C 1138.64 641.616 1132.97 644.943 1132.43 648.733 C 1129.56 668.962 1127.96 688.856 1126.51 709.195 C 1126.24 712.867 1128.67 718.447 1128.08 720.106 C 1126.31 725.059 1123.28 731.576 1121.11 736.389 C 1119.08 736.823 1118.31 736.993 1116.38 737.738 C 1112.69 753.501 1112.93 765.133 1112.48 780.99 C 1112.31 787.31 1110.58 795.384 1110.69 802.01 C 1110.8 808.157 1114.64 825.58 1112.38 830.8 L 1111.64 831.175 C 1104.86 834.679 1106.34 839.834 1107.15 846.403 L 1109.28 847.969 z"/>
<path transform="translate(0,0)" fill="rgba(112, 153, 187, 1)" d="M 1155.78 592.146 C 1168.03 596.194 1184.43 601.132 1197.28 601.363 C 1195.54 603.953 1196.28 605.362 1196.34 608.238 C 1197.05 639.198 1196.05 675.539 1190.54 705.971 C 1179.85 764.239 1150.03 817.275 1105.79 856.678 C 1086.42 874.231 1060.02 892.868 1035.74 902.711 L 1034.81 901.145 C 1034.8 899.293 1034.42 899.7 1035.56 899.141 C 1054.9 889.669 1097.48 864.61 1109.28 847.969 C 1185.6 767.423 1193.06 708.53 1192 602.577 C 1177.69 601.885 1168.57 598.597 1155.23 594.073 L 1155.78 592.146 z"/>
<path transform="translate(0,0)" fill="rgba(112, 153, 187, 1)" d="M 985.24 915.426 C 988.58 913.855 998.987 911.899 1002.26 914.092 C 997.296 915.822 993.671 917.046 988.512 918.3 C 980.851 919.573 961.748 921.291 956.796 925 L 797.735 925 L 798.02 923.192 C 801.24 921.134 854.752 923.931 866.229 922.613 C 914.901 922.424 936.1 924.432 985.24 915.426 z"/>
<path transform="translate(0,0)" fill="rgba(12, 49, 105, 1)" d="M 447.014 280.74 C 449.804 276.358 455.348 269.363 460.837 269.241 C 462.872 273.779 463.101 277.476 463.664 282.328 C 469.245 284.098 470.228 280.53 473.69 287.425 C 475.268 290.568 478.151 294.187 480.695 296.615 C 467.053 304.39 457.149 313.376 445.611 323.84 C 443.073 326.141 437.681 331.186 434.307 331.13 C 430.431 329.114 422.517 324.554 418.589 324.128 C 414.664 327.478 419.074 326.827 414.112 329.065 L 412.107 328.143 C 408.897 317.878 436.731 296.506 442.321 288.37 C 442.85 287.6 447.154 280.606 447.014 280.74 z"/>
<path transform="translate(0,0)" fill="rgba(60, 131, 157, 1)" d="M 447.014 280.74 C 449.804 276.358 455.348 269.363 460.837 269.241 C 459.644 274.468 452.301 280.424 447.014 280.74 z"/>
<path transform="translate(0,0)" fill="rgba(12, 49, 105, 1)" d="M 815.377 391.536 L 817.413 391.181 C 826.688 398.545 844.151 419.625 852.468 428.956 C 858.99 436.274 868.391 446.073 874.367 453.232 L 879.156 458.193 C 885.896 465.124 910.375 491.896 915.605 495.792 L 916.823 496.211 C 917.899 530.675 916.629 564.478 915.744 598.818 C 922.005 598.886 931.248 599.243 937.227 598.6 C 937.222 600.393 927.268 620.044 925.74 624.273 L 924.644 624.187 L 922.154 620.987 C 918.277 620.871 913.255 621.367 910.121 623.791 L 909.384 625.908 C 910.898 627.462 911.484 627.951 913.253 629.21 C 911.419 633.666 900.704 650.67 897.464 654.498 C 896.264 653.929 895.701 653.613 894.599 652.941 C 892.345 656.147 892.751 656.565 894.156 660.503 C 891.183 666.383 886.283 664.402 885.027 668.493 L 886.226 670.451 C 884.398 671.653 882.83 671.301 880.564 671.221 C 875.31 674.591 875.748 678.988 870.648 680.896 C 869.229 680.415 868.518 680.133 867.154 679.51 C 862.941 682.396 857.391 685.531 854.803 689.697 C 851.046 687.601 847.165 685.346 843.302 683.488 L 839.766 686.798 C 837.333 686.219 836.492 685.172 834.696 683.506 C 831.395 684.269 827.183 685.678 824.134 684.617 L 820.456 681.005 C 817.303 681.17 812.67 681.557 809.667 681.259 C 805.318 675.01 802.288 670.384 795.749 666.091 C 797.074 658.779 822.29 644.072 819.237 636.9 L 818.143 636.087 L 817.014 635.084 C 820.669 629.939 827.773 620.936 828.481 615.026 C 821.304 616.145 798.416 654.304 788.967 660.34 C 780.524 665.733 770.425 672.088 762.499 677.818 C 770.201 668.595 779.32 663.074 785.789 652.994 C 779.43 655.84 773.587 659.764 767.673 663.373 C 700.442 704.402 624.029 744.243 543.133 721.957 C 542.485 721.778 540.94 720.913 540.305 720.55 L 537.37 721.354 C 535.388 717.664 527.446 709.731 524.162 706.319 C 519.176 698.835 504.434 686.084 498.148 677.069 C 518.018 685.549 550.79 692.138 572.44 690.872 C 576.399 688.109 573.129 687.208 578.019 684.666 C 587.735 686.695 580.279 695.08 603.301 690.345 L 604.839 689.008 L 604.854 685.305 C 639.388 684.531 683.658 667.641 712.317 647.567 C 715.129 645.597 715.166 645.605 715.784 642.315 C 718.626 639.017 731.265 630.343 735.987 625.934 C 752.259 610.741 763.166 597.139 776.984 580.356 C 779.127 577.263 778.033 581.479 780.009 576.889 C 782.52 579.703 783.317 579.95 786.747 581.559 C 792.253 571.353 794.735 570.279 795.482 558.534 C 798.785 555.131 804.707 548.846 805.621 544.231 C 802.703 532.522 813.38 525.37 815.179 514.452 C 815.821 510.552 810.097 510.3 817.511 504.662 C 819.457 497.591 813.196 495.346 819.978 491.375 C 824.338 488.823 820.659 480.301 819.868 476.21 C 818.668 470.008 818.144 470.063 822.948 466.041 C 825.033 460.302 823.956 427.617 820.209 423.314 C 814.079 420.466 812.446 406.508 811.705 400.214 C 813.886 400.335 814.168 400.217 816.322 399.713 C 817.415 396.418 816.439 395.552 815.377 391.536 z"/>
<path transform="translate(0,0)" fill="rgba(12, 49, 105, 1)" d="M 874.367 453.232 L 879.156 458.193 C 885.896 465.124 910.375 491.896 915.605 495.792 L 916.823 496.211 C 917.899 530.675 916.629 564.478 915.744 598.818 C 922.005 598.886 931.248 599.243 937.227 598.6 C 937.222 600.393 927.268 620.044 925.74 624.273 L 924.644 624.187 L 922.154 620.987 C 918.277 620.871 913.255 621.367 910.121 623.791 L 909.384 625.908 C 910.898 627.462 911.484 627.951 913.253 629.21 C 911.419 633.666 900.704 650.67 897.464 654.498 C 896.264 653.929 895.701 653.613 894.599 652.941 C 892.345 656.147 892.751 656.565 894.156 660.503 C 891.183 666.383 886.283 664.402 885.027 668.493 L 886.226 670.451 C 884.398 671.653 882.83 671.301 880.564 671.221 C 875.31 674.591 875.748 678.988 870.648 680.896 C 869.229 680.415 868.518 680.133 867.154 679.51 C 862.941 682.396 857.391 685.531 854.803 689.697 C 851.046 687.601 847.165 685.346 843.302 683.488 L 839.766 686.798 C 837.333 686.219 836.492 685.172 834.696 683.506 C 831.395 684.269 827.183 685.678 824.134 684.617 L 820.456 681.005 C 817.303 681.17 812.67 681.557 809.667 681.259 C 805.318 675.01 802.288 670.384 795.749 666.091 C 797.074 658.779 822.29 644.072 819.237 636.9 L 818.143 636.087 L 817.014 635.084 C 820.669 629.939 827.773 620.936 828.481 615.026 C 828.503 613.012 845.608 580.833 847.939 576.097 C 867.155 537.053 873.264 496.342 874.367 453.232 z"/>
<path transform="translate(0,0)" fill="rgba(34, 162, 235, 1)" d="M 874.367 453.232 L 879.156 458.193 C 882.278 514.859 856.303 588.1 821.491 633.542 C 820.733 634.531 819.235 635.46 818.143 636.087 L 817.014 635.084 C 820.669 629.939 827.773 620.936 828.481 615.026 C 828.503 613.012 845.608 580.833 847.939 576.097 C 867.155 537.053 873.264 496.342 874.367 453.232 z"/>
<path transform="translate(0,0)" fill="url(#Gradient4)" d="M 776.984 580.356 C 779.127 577.263 778.033 581.479 780.009 576.889 C 782.52 579.703 783.317 579.95 786.747 581.559 C 747.877 635.93 699.893 674.808 631.498 687.228 C 625.277 688.358 613.08 690.492 607.176 689.475 C 605.113 687.627 605.791 688.455 604.854 685.305 C 639.388 684.531 683.658 667.641 712.317 647.567 C 715.129 645.597 715.166 645.605 715.784 642.315 C 718.626 639.017 731.265 630.343 735.987 625.934 C 752.259 610.741 763.166 597.139 776.984 580.356 z"/>
<path transform="translate(0,0)" fill="rgba(60, 131, 157, 1)" d="M 811.705 400.214 C 813.653 400.73 815.437 400.753 816.172 402.204 C 818.707 407.206 819.81 417.76 820.209 423.314 C 814.079 420.466 812.446 406.508 811.705 400.214 z"/>
<path transform="translate(0,0)" fill="url(#Gradient3)" d="M 775.776 461.992 C 776.498 457.942 775.788 457.918 778.258 455.793 C 782.563 456.617 784.996 459.4 787.488 464.129 C 802.042 491.753 789.561 527.83 777.227 554.004 C 775.685 557.276 774.825 561.859 773.457 564.527 C 772.123 568.235 768.838 571.971 768.971 575.452 C 771.056 576.825 770.037 576.565 773.059 576.016 L 775.848 576.8 C 776.397 578.105 776.845 578.93 776.984 580.356 C 763.166 597.139 752.259 610.741 735.987 625.934 C 731.265 630.343 718.626 639.017 715.784 642.315 C 689.291 653.264 661.393 674.449 630.662 674.036 L 629.207 672.848 C 634.441 668.496 653.574 664.699 650.255 658.427 C 638.007 662.969 614.392 665.118 601.574 665.109 C 603.351 657.433 603.833 652.373 603.926 644.568 C 612.834 641.947 624.465 639.872 633.923 637.419 C 654.651 631.904 674.294 622.917 692.019 610.839 C 738.749 578.914 763.455 533.673 773.665 479.029 C 774.663 473.94 772.75 471.497 775.259 463.415 L 775.776 461.992 z"/>
<path transform="translate(0,0)" fill="url(#Gradient2)" d="M 760.152 574.832 C 765.16 571.167 768.595 564.545 771.323 559.069 L 773.273 558.578 L 773.007 556.86 C 774 558.655 771.989 561.238 773.457 564.527 C 772.123 568.235 768.838 571.971 768.971 575.452 C 771.056 576.825 770.037 576.565 773.059 576.016 L 775.848 576.8 C 776.397 578.105 776.845 578.93 776.984 580.356 C 763.166 597.139 752.259 610.741 735.987 625.934 C 731.265 630.343 718.626 639.017 715.784 642.315 C 689.291 653.264 661.393 674.449 630.662 674.036 L 629.207 672.848 C 634.441 668.496 653.574 664.699 650.255 658.427 C 657.233 654.515 668.422 651.656 676.47 647.835 C 719.739 627.292 733.682 613.469 760.152 574.832 z"/>
<path transform="translate(0,0)" fill="rgba(34, 162, 235, 1)" d="M 775.776 461.992 C 776.498 457.942 775.788 457.918 778.258 455.793 C 782.563 456.617 784.996 459.4 787.488 464.129 C 802.042 491.753 789.561 527.83 777.227 554.004 C 775.685 557.276 774.825 561.859 773.457 564.527 C 771.989 561.238 774 558.655 773.007 556.86 L 773.273 558.578 L 771.323 559.069 C 768.595 564.545 765.16 571.167 760.152 574.832 C 774.509 549.215 789.915 508.828 790.349 478.827 C 790.432 473.101 784.756 460.752 778.855 458.724 L 775.776 461.992 z"/>
<path transform="translate(0,0)" fill="rgba(150, 161, 176, 1)" d="M 1092.88 359.029 C 1097.57 359.042 1100.79 359.154 1105.48 359.579 C 1109.11 364.105 1106.37 375.263 1106.81 381.655 C 1109.23 416.815 1107.67 452.199 1107.97 487.419 C 1108.03 494.569 1107.69 502.15 1108.49 509.246 C 1109.41 516.94 1111.47 524.453 1114.61 531.538 C 1123.51 552.21 1140.41 568.394 1161.45 576.394 C 1167.97 578.939 1187.02 585.846 1193.6 582.951 L 1196.04 581.513 C 1198.74 583.743 1199.12 584.884 1202.86 584.657 C 1229.61 583.028 1254.68 572.947 1271.88 552.038 C 1280.97 540.91 1287.29 527.781 1290.31 513.732 C 1294.21 496.097 1293.05 468.096 1293.05 449.183 L 1293 360.897 L 1308.2 360.86 L 1308.23 452.848 C 1308.24 495.151 1312.67 534.993 1279.96 567.708 C 1257.49 590.177 1228.67 600.27 1197.28 601.363 C 1184.43 601.132 1168.03 596.194 1155.78 592.146 L 1152.95 591.902 C 1140.89 583.602 1131.87 580.288 1120.78 569.213 C 1087.29 535.776 1092.81 498.31 1092.83 454.82 L 1092.88 359.029 z"/>
<path transform="translate(0,0)" fill="rgba(150, 161, 176, 1)" d="M 1120.25 359.014 C 1126.12 359.038 1129.6 359.57 1135.38 360.414 C 1137.29 395.922 1136.36 432.205 1136.91 467.772 C 1137.53 507.711 1130.8 525.706 1167.9 550.033 C 1175.64 540.739 1178.99 532.595 1182.98 521.37 C 1185.32 518.753 1187.92 513.746 1188.22 510.289 L 1188.7 510.504 L 1188.54 512.9 L 1188.09 513.006 C 1188.08 514.204 1188.01 519.796 1188.15 520.555 C 1186.45 531.427 1182.24 539.879 1180.54 550.466 C 1180.35 551.683 1183.76 553.913 1184.93 554.392 C 1192.3 553.26 1191.64 545.768 1192.24 539.612 C 1194.55 533.491 1192.06 527.249 1194.56 522.789 C 1195.15 533.911 1196.4 545.613 1197.35 556.764 C 1216.09 556.255 1232.66 552.456 1245.91 538.408 C 1254.07 529.729 1259.77 519.042 1262.45 507.438 C 1265.83 492.708 1263.7 456.361 1264.41 439.51 C 1264.73 431.879 1265.32 422.512 1265.45 414.998 C 1265.62 396.962 1265.68 378.924 1265.63 360.887 L 1279.17 360.852 L 1279.31 450.007 C 1279.35 485.362 1284.57 522.098 1256.9 549.231 C 1243.28 562.594 1221.2 572.303 1202.01 572.002 C 1201.16 571.982 1200.31 571.925 1199.46 571.831 C 1196.86 575.863 1196.73 576.713 1196.04 581.513 L 1193.6 582.951 C 1193.94 578.913 1194.15 576.678 1191.96 573.375 C 1175.41 572.783 1155.67 563.749 1143.63 551.887 C 1114.57 523.255 1120.23 482.768 1120.23 444.126 L 1120.25 359.014 z"/>
<path transform="translate(0,0)" fill="rgba(112, 153, 187, 1)" d="M 1191.96 573.375 C 1195.01 572.467 1196.31 572.252 1199.46 571.831 C 1196.86 575.863 1196.73 576.713 1196.04 581.513 L 1193.6 582.951 C 1193.94 578.913 1194.15 576.678 1191.96 573.375 z"/>
<path transform="translate(0,0)" fill="rgba(150, 161, 176, 1)" d="M 918.659 359.142 L 933.945 359.127 L 933.96 525.02 C 933.976 544.034 930.811 561.732 932.792 580.946 C 956.395 580.929 979.505 582.399 1003.01 582.514 C 1028.91 582.641 1054.85 582.483 1080.75 582.464 L 1080.86 595.636 C 1068.16 600.256 982.034 596.707 965.176 597.682 C 959.892 597.988 942.33 597.073 937.227 598.6 C 931.248 599.243 922.005 598.886 915.744 598.818 C 916.629 564.478 917.899 530.675 916.823 496.211 C 916.893 487.734 916.825 479.298 917.688 470.86 C 919.029 462.76 918.655 454.582 918.73 446.399 C 918.995 417.349 918.236 388.179 918.659 359.142 z"/>
<path transform="translate(0,0)" fill="rgba(34, 162, 235, 1)" d="M 583.44 771.145 C 585.523 772.569 590.553 776.031 592.787 776.547 C 630.359 785.223 669.052 786.144 707.348 788.825 C 717.316 789.522 719.802 792.341 731.803 792.025 C 743.642 790.66 765.819 781.651 778.359 777.35 L 779.415 778.477 C 777.342 779.369 775.251 780.218 773.143 781.024 L 772.742 782.739 C 775.039 782.009 776.619 781.518 779.027 781.034 L 779.644 782.285 C 769.617 786.509 759.926 791.234 749.744 794.956 C 734.329 800.591 717.937 805.074 702.679 810.977 C 699.848 812.418 696.762 813.458 695.546 816.229 C 697.825 822.788 700.324 819.288 699.135 823.376 L 697.108 824.537 C 681.364 833.825 666.167 833.71 650.877 844.413 C 647.716 841.641 643.968 837.565 640.964 834.481 L 641.276 833.494 L 644.989 834.629 C 650.286 833.35 661.87 829.752 666.331 826.997 C 662.678 822.937 639.366 819.062 634.315 822.213 L 634.021 825.482 C 632.384 825.207 625.856 817.748 624.202 815.995 L 618.77 810.084 C 612.283 803.527 595.435 784.308 589.775 779.625 C 586.55 776.188 585.625 775.263 583.44 771.145 z"/>
<path transform="translate(0,0)" fill="rgba(16, 155, 214, 1)" d="M 583.44 771.145 C 585.523 772.569 590.553 776.031 592.787 776.547 C 630.359 785.223 669.052 786.144 707.348 788.825 C 717.316 789.522 719.802 792.341 731.803 792.025 C 722.639 798.483 662.875 800.493 649.824 798.234 C 648.425 797.992 647.027 797.741 645.631 797.483 L 645.289 796.517 L 646.471 795.26 C 642.886 795.335 631.498 795.731 628.655 795.002 C 623.249 793.614 623.611 792.879 616.615 791.894 L 616.066 792.666 C 623.652 796 632.897 795.281 640.589 798.759 L 641.008 800.002 C 635.993 799.972 612.004 792.365 605.214 793.81 C 605.53 794.295 618.552 806.812 619.613 807.719 L 623.458 807.005 L 624.202 807.593 C 622.126 808.903 621.248 809.612 618.77 810.084 C 612.283 803.527 595.435 784.308 589.775 779.625 C 586.55 776.188 585.625 775.263 583.44 771.145 z"/>
<path transform="translate(0,0)" fill="url(#Gradient1)" d="M 624.202 815.995 C 635.425 813.207 653.161 813.878 665.17 812.52 C 675.251 811.38 684.596 809.332 694.574 807.594 C 697.82 807.029 700.046 809.054 702.679 810.977 C 699.848 812.418 696.762 813.458 695.546 816.229 C 697.825 822.788 700.324 819.288 699.135 823.376 L 697.108 824.537 C 681.364 833.825 666.167 833.71 650.877 844.413 C 647.716 841.641 643.968 837.565 640.964 834.481 L 641.276 833.494 L 644.989 834.629 C 650.286 833.35 661.87 829.752 666.331 826.997 C 662.678 822.937 639.366 819.062 634.315 822.213 L 634.021 825.482 C 632.384 825.207 625.856 817.748 624.202 815.995 z"/>
<path transform="translate(0,0)" fill="rgba(34, 162, 235, 1)" d="M 685.67 822.332 C 689.977 822.853 692.961 823.069 697.108 824.537 C 681.364 833.825 666.167 833.71 650.877 844.413 C 647.716 841.641 643.968 837.565 640.964 834.481 L 641.276 833.494 L 644.989 834.629 C 650.286 833.35 661.87 829.752 666.331 826.997 C 673.838 828.346 678.596 825.356 685.67 822.332 z"/>
<path transform="translate(0,0)" fill="rgba(150, 161, 176, 1)" d="M 2032.86 360.907 L 2048 360.881 L 2048 596.156 L 2032.91 596.411 C 2031.66 519.271 2032.86 438.334 2032.86 360.907 z"/>
<path transform="translate(0,0)" fill="rgba(112, 153, 187, 1)" d="M 794.307 362.605 C 805.649 370.424 831.856 403.344 843.704 414.837 C 846.545 417.592 852.575 425.099 855.166 427.223 C 855.446 427.237 858.355 427.378 858.355 427.378 C 873.26 439.254 884.8 455.103 899.218 467.487 C 901.091 469.096 908.112 469.995 910.262 469.437 C 915.244 468.143 914.617 470.217 917.688 470.86 C 916.825 479.298 916.893 487.734 916.823 496.211 L 915.605 495.792 C 910.375 491.896 885.896 465.124 879.156 458.193 L 874.367 453.232 C 868.391 446.073 858.99 436.274 852.468 428.956 C 844.151 419.625 826.688 398.545 817.413 391.181 L 815.377 391.536 C 804.169 391.252 804.313 380.979 799.579 372.448 C 797.841 369.316 795.695 365.701 794.307 362.605 z"/>
<path transform="translate(0,0)" fill="rgba(12, 49, 105, 1)" d="M 855.166 427.223 C 855.446 427.237 858.355 427.378 858.355 427.378 C 873.26 439.254 884.8 455.103 899.218 467.487 C 901.091 469.096 908.112 469.995 910.262 469.437 C 915.244 468.143 914.617 470.217 917.688 470.86 C 916.825 479.298 916.893 487.734 916.823 496.211 L 915.605 495.792 C 914.146 487.989 864.238 436.759 855.166 427.223 z"/>
<path transform="translate(0,0)" fill="rgba(16, 155, 214, 1)" d="M 872.935 711.533 L 874.161 713.217 C 862.457 731.417 802.711 780.766 782.981 788.013 L 782.437 785.461 L 779.644 782.285 L 779.027 781.034 C 776.619 781.518 775.039 782.009 772.742 782.739 L 773.143 781.024 C 775.251 780.218 777.342 779.369 779.415 778.477 L 778.359 777.35 C 783.867 773.64 799.528 768.565 807.109 764.259 C 832.955 749.581 852.165 732.314 872.935 711.533 z"/>
<path transform="translate(0,0)" fill="rgba(146, 208, 233, 1)" d="M 675.227 236.263 C 680.358 235.286 682.477 238.269 686.297 241.682 C 697.536 252.635 725.649 286.778 736.197 294.412 C 744.975 304.205 780.812 343.344 786.308 352.261 L 786.098 354.177 C 782.211 353.654 775.808 345.392 772.362 341.976 C 764.903 332.388 754.021 320.626 745.842 311.283 C 742.331 307.583 738.864 303.843 735.439 300.063 C 731.987 294.069 707.457 269.567 701.675 264.558 C 697.599 259.45 692.572 254.425 688.018 249.676 C 683.959 244.665 679.83 240.763 675.227 236.263 z"/>
<path transform="translate(0,0)" fill="rgba(112, 153, 187, 1)" d="M 182.256 271.725 C 184.874 268.544 181.47 241.528 182.132 234.757 C 183.144 224.407 182.195 217.324 186.095 206.707 C 186.563 225.609 185.257 256.234 186.865 273.349 L 188.104 286.04 L 185.579 290.153 C 183.49 283.61 183.07 278.533 182.256 271.725 z"/>
<path transform="translate(0,0)" fill="rgba(112, 153, 187, 1)" d="M 773.059 576.016 C 778.648 568.428 780.626 564.18 787.814 557.988 L 789.148 558.169 C 787.398 570.125 783.701 568.946 780.009 576.889 C 778.033 581.479 779.127 577.263 776.984 580.356 C 776.845 578.93 776.397 578.105 775.848 576.8 L 773.059 576.016 z"/>
<path transform="translate(0,0)" fill="rgba(112, 153, 187, 1)" fill-opacity="0.945098" d="M 782.437 785.461 L 782.981 788.013 C 776.179 794.105 749.907 806.804 740.777 808.034 C 746.833 803.186 769.963 794.969 781.722 786.011 L 782.437 785.461 z"/>
<path transform="translate(0,0)" fill="rgba(60, 131, 157, 1)" fill-opacity="0.945098" d="M 887.252 758.989 C 883.405 760.736 873.018 765.899 869.361 764.772 L 869.705 765.587 L 868.815 765.668 L 869.137 764.757 L 869.605 765.466 L 869.855 764.27 L 870.403 765.267 L 870.537 763.856 L 871.186 765.038 L 871.203 763.478 C 875.499 761.162 883.341 758.19 887.962 756.358 L 887.252 758.989 z"/>
<path transform="translate(0,0)" fill="rgba(12, 49, 105, 1)" fill-opacity="0.901961" d="M 924.644 624.187 L 925.74 624.273 C 923.973 628.164 921.995 633.804 918.762 636.298 L 919.816 635.014 L 918.833 634.069 C 920.713 629.247 921.09 627.844 924.644 624.187 z"/>
<path transform="translate(0,0)" fill="rgba(60, 131, 157, 1)" fill-opacity="0.917647" d="M 872.935 711.533 C 875.079 709.249 878.058 705.444 880.84 704.75 C 880.295 707.551 876.332 711.37 874.161 713.217 L 872.935 711.533 z"/>
</g></svg></svg></svg>